<svg xmlns="http://www.w3.org/2000/svg" width="24" height="24" viewBox="0 0 24 24"><g fill="#FFF"><path d="M13.106 5.238c.728-.763 1.755-1.238 2.894-1.238 2.209 0 4 1.791 4 4 0 1.064-.415 2.031-1.093 2.747-.56-.386-1.217-.641-1.928-.72-.193-2.269-1.765-4.145-3.874-4.789z"/><path fill-rule="nonzero" d="M15.48.73l.26 1.477c.174.985-1.304 1.245-1.477.26l-.26-1.477c-.174-.985 1.304-1.245 1.477-.26zm5.293 1.761l-.86 1.229c-.574.819-1.802-.041-1.229-.86l.86-1.229c.574-.819 1.802.041 1.229.86zm-10.281.736l1.229.86c.819.574-.041 1.802-.86 1.229l-1.229-.86c-.819-.574.041-1.802.86-1.229zm10.649 7.456l1.229.86c.819.574-.041 1.802-.86 1.229l-1.229-.86c-.819-.574.041-1.802.86-1.229zm2.13-3.204l-1.477.26c-.985.174-1.245-1.304-.26-1.477l1.477-.26c.985-.174 1.245 1.304.26 1.477z"/><path d="M6 17c-2.071 0-3.75-1.679-3.75-3.75 0-2.071 1.679-3.75 3.75-3.75.555 0 1.081.12 1.555.336.316-1.893 1.962-3.336 3.945-3.336 2.209 0 4 1.791 4 4 0 .447-.073.878-.209 1.279.365-.179.775-.279 1.209-.279 1.519 0 2.75 1.231 2.75 2.75s-1.231 2.75-2.75 2.75h-10.5z"/><path fill-rule="nonzero" d="M7.109 19.463l-1.05 2.499c-.16.382.019.822.401.982.382.16.822-.019.982-.401l1.05-2.499c.16-.382-.019-.822-.401-.982-.382-.16-.822.019-.982.401zm5-1l-1.05 2.499c-.16.382.019.822.401.982.382.16.822-.019.982-.401l1.05-2.499c.16-.382-.019-.822-.401-.982-.382-.16-.822.019-.982.401z"/></g></svg>