<?xml version="1.0" encoding="UTF-8"?>
<svg width="108px" height="64px" viewBox="0 0 108 64" version="1.1" xmlns="http://www.w3.org/2000/svg" xmlns:xlink="http://www.w3.org/1999/xlink">
    <!-- Generator: Sketch 49 (51002) - http://www.bohemiancoding.com/sketch -->
    <title>Без названия</title>
    <desc>Created with Sketch.</desc>
    <defs></defs>
    <g id="Page-1" stroke="none" stroke-width="1" fill="none" fill-rule="evenodd">
        <g id="Без-названия" transform="translate(-1.000000, 0.000000)" fill-rule="nonzero">
            <g id="Group" transform="translate(36.000000, 7.000000)" fill="#434CA0">
                <path d="M45.12,20.67 L45.1286,20.67 L45.1286,16.302 L46.3396,14.646 C46.6381,14.915 47.3956,15.731 47.3956,17.072 L47.3956,25.979 L50.3576,25.979 L50.3576,16.842 C50.3576,15.051 49.6077,13.361 48.3006,12.205 L48.1959,12.113 L48.5478,11.632 C49.7078,10.049 50.3498,8.069 50.3498,6.059 L50.3498,0.038 L47.3888,0.038 L47.3888,6.488 C47.3888,7.789 46.9766,9.068 46.2278,10.09 L45.1328,11.576 L45.1328,0.036 L42.1708,0.036 L42.1708,25.976 L45.1178,25.976 L45.12,20.67 Z" id="XMLID_363_"></path>
                <path d="M72.2,3.21 L72.2,0.041 L66.249,0.041 C65.7712,0.041 65.3754,0.4696 65.3754,0.9979 L65.3754,25.0179 C65.3754,25.5503 65.7712,25.9734 66.249,25.9734 L72.249,25.9734 L72.249,22.8034 L68.331,22.8034 L68.331,11.4034 L72.077,11.4034 L72.077,8.2364 L68.337,8.2364 L68.337,3.1984 L72.2,3.21 Z" id="XMLID_361_"></path>
                <polygon id="XMLID_360_" points="41.805 30.071 38.84295 30.071 38.84295 37.8242 36.57705 41.35955 36.57705 30.071 33.615 30.071 33.615 56.006 36.57705 56.006 36.57705 46.3691 38.84295 42.88835 38.84295 56.006 41.805 56.006"></polygon>
                <g>
                    <path d="M17.33,30.07 L14.195,30.070538 C11.765,30.070538 10.219,31.980538 10.058,35.176538 C10.058,35.435938 10.04435,35.681538 10.04435,35.913638 L10.04435,56.003638 L13.00135,55.999238 L13.00135,46.369238 L15.27135,46.369238 L15.27135,56.003238 L18.23335,56.003238 L18.23335,31.023238 C18.23335,30.490838 17.83755,30.067738 17.33245,30.067738 L17.33,30.07 Z M15.261,43.2 L13.009,43.2 L13.009,35.028 C13.009,34.0688 13.2097,33.236 14.204,33.236 L15.284,33.236 L15.261,43.2 Z" id="XMLID_347_"></path>
                    <path d="M48.63,30.07 C46.241,30.07 44.712,31.954 44.562,35.107 C44.54835,35.3664 44.5347,35.5984 44.5347,35.8304 L44.5347,50.2604 L44.5367,50.32771 L44.5367,50.42326 C44.5367,53.91726 46.0657,56.00626 48.6317,56.00626 C51.0247,56.00626 52.5497,54.12526 52.7077,50.97626 C52.7077,50.71686 52.72135,50.47126 52.72135,50.23916 L52.72135,35.63916 C52.72135,32.14516 51.19235,30.05616 48.62635,30.05616 L48.63,30.07 Z M49.835,51.27 C49.80429,51.8583 49.6072,52.841 48.628,52.841 C47.6477,52.841 47.451,51.8548 47.421,51.271 C47.4165,51.0415 47.411,35.041 47.415,34.821 C47.44522,34.2327 47.6413,33.246 48.622,33.246 C49.6028,33.246 49.799,34.2328 49.829,34.818 C49.8364,35.0824 49.84087,50.848 49.8345,51.268 L49.835,51.27 Z" id="XMLID_338_"></path>
                    <path d="M39.54,24.43 C40.3863,23.4472 40.809,22.123 40.809,20.472 L40.809,17.644 L37.51,17.644 L37.51,20.545 C37.51,21.337 37.3669,21.928 37.0848,22.3 C36.814,22.6564 36.4699,22.8295 36.0318,22.8295 C35.5685,22.8295 35.2341,22.6727 34.9788,22.3354 C34.7096,21.9801 34.5853,21.4337 34.5853,20.6144 L34.5853,5.3944 C34.5853,4.5755 34.7102,4.0294 34.9776,3.6744 C35.2337,3.3381 35.5681,3.1814 36.0306,3.1814 C36.4689,3.1814 36.8136,3.3546 37.0836,3.7109 C37.3657,4.0837 37.5088,4.6745 37.5088,5.4679 L37.5088,8.3669 L40.8078,8.3669 L40.8078,5.5399 C40.8078,3.8919 40.3814,2.5599 39.5398,1.5819 C38.6662,0.5579 37.4788,0.0409 36.0318,0.0409 C34.5848,0.0409 33.3978,0.5582 32.5238,1.5809 C31.6775,2.5596 31.2548,3.8919 31.2548,5.5409 L31.2548,20.4709 C31.2548,22.1199 31.6812,23.4519 32.5218,24.4309 C33.3954,25.4549 34.5828,25.9729 36.0298,25.9729 C37.4808,25.9729 38.6618,25.455 39.5388,24.4329 L39.54,24.43 Z" id="XMLID_335_"></path>
                    <path d="M57.87,0.041 C55.085,0.041 53.311,1.911 53.12,5.042 C53.10635,5.3 53.0927,5.5361 53.0927,5.7641 L53.0927,20.2641 L53.095,20.33029 L53.095,20.43949 C53.095,23.90649 54.883,25.98149 57.873,25.98149 C60.658,25.98149 62.446,24.11149 62.623,20.98549 C62.63665,20.72609 62.6503,20.49409 62.6503,20.26209 L62.6503,5.58209 C62.6503,2.10909 60.8623,0.03709 57.8733,0.03709 L57.87,0.041 Z M59.28,21.271 C59.24456,21.8573 59.013,22.837 57.867,22.837 C56.719,22.837 56.488,21.8531 56.454,21.273 C56.4488,21.0411 56.44199,4.993 56.4472,4.773 C56.48208,4.1862 56.7124,3.202 57.8612,3.202 C59.0082,3.202 59.2382,4.1859 59.2742,4.769 C59.2828,5.0307 59.28849,20.849 59.2805,21.269 L59.28,21.271 Z" id="XMLID_327_"></path>
                    <path d="M25.11,25.98 C26.56,25.98 27.74,25.4621 28.619,24.44 C29.4653,23.4572 29.888,22.133 29.888,20.482 L29.888,17.652 L26.588,17.652 L26.588,20.553 C26.588,21.345 26.4444,21.936 26.1621,22.308 C25.8913,22.6644 25.5472,22.8375 25.1091,22.8375 C24.6458,22.8375 24.3114,22.6807 24.0561,22.3434 C23.7869,21.9881 23.662,21.4417 23.662,20.6224 L23.662,5.4024 C23.662,4.5835 23.7869,4.0374 24.0543,3.6824 C24.3104,3.3461 24.6453,3.1894 25.1083,3.1894 C25.5466,3.1894 25.8907,3.3626 26.1613,3.7189 C26.4434,4.0917 26.5872,4.6829 26.5872,5.4759 L26.5872,8.3749 L29.8862,8.3749 L29.8862,5.5479 C29.8862,3.8999 29.4598,2.5679 28.6192,1.5899 C27.7456,0.5659 26.5582,0.0489 25.1112,0.0489 C23.6642,0.0489 22.4772,0.5662 21.6032,1.5889 C20.7569,2.5676 20.3342,3.8999 20.3342,5.5489 L20.3342,20.4789 C20.3342,22.1279 20.7606,23.4599 21.6012,24.4389 C22.4748,25.4629 23.6622,25.9809 25.1092,25.9809 L25.11,25.98 Z" id="XMLID_323_"></path>
                    <path d="M0.49,0.998 L0.49,25.978 L3.453,25.978 L3.453,16.298 L6.876,11.627 C8.036,10.044 8.678,8.064 8.678,6.054 L8.678,0.035 L1.389,0.035 C0.884,0.035 0.4881,0.4636 0.4881,0.9919 L0.49,0.998 Z M3.455,3.187 L5.714,3.187 L5.714,6.489 C5.714,7.79 5.3011,9.069 4.551,10.091 L3.455,11.577 L3.455,3.187 Z" id="XMLID_315_"></path>
                    <path d="M0.49,31.03 L0.49,56.01 L3.453,56.01 L3.453,46.334 L6.876,41.663 C8.036,40.08 8.678,38.1 8.678,36.094 L8.678,30.074 L1.389,30.074 C0.884,30.074 0.4881,30.4972 0.4881,31.0295 L0.49,31.03 Z M3.455,33.219 L5.714,33.219 L5.714,36.521 C5.714,37.821 5.3011,39.101 4.551,40.123 L3.455,41.609 L3.455,33.219 Z" id="XMLID_309_"></path>
                    <path d="M30.63,52.83 L30.63,32.5 L30.6269,32.5 L30.6269,31.026 C30.6269,30.4936 30.2037,30.0705 29.6987,30.0705 L26.4327,30.0705 C23.9017,30.0705 22.2897,31.9805 22.1217,35.1765 C22.10546,35.4402 22.09761,35.6813 22.09709,35.9116 L22.09339,35.9127 L22.09339,42.6657 C22.09339,46.0677 21.53289,51.7717 21.42709,52.8157 L19.96609,52.8157 L19.96609,55.9957 L32.24609,55.9957 L32.24349,52.8107 L30.63,52.83 Z M27.549,52.83 L24.511,52.83 C24.8771,49.479 25.1715,46.582 25.1715,42.68 L25.1715,35.041 L25.1746,35.0399 C25.1746,34.0804 25.3836,33.2479 26.4206,33.2479 L27.5456,33.2479 L27.5487,33.249 L27.5487,52.839 L27.549,52.83 Z" id="XMLID_306_"></path>
                    <path d="M15.27,0.041 L15.27,11.581 L14.173,10.095 C13.4086,9.085 12.999,7.802 12.999,6.498 L12.999,0.053 L10.037,0.053 L10.037,6.069 C10.037,8.08 10.6768,10.058 11.839,11.641 L15.443,16.517 L15.443,17.714 L12.645,17.714 C11.198,17.714 10.038,18.956 10.038,20.499 L10.038,23.211 C10.038,24.74 11.198,25.982 12.645,25.982 L15.623,25.982 C17.07,25.982 18.23,24.74 18.23,23.197 L18.23,20.365 C18.23,20.35048 18.2285,20.33702 18.228,20.32249 L18.228,0.03249 L15.27,0.041 Z M15.4495,22.591 C15.4495,22.8046 15.2872,22.9784 15.0871,22.9784 L13.1941,22.9784 C12.994,22.9784 12.8311,22.8052 12.8311,22.591 L12.8311,21.091 C12.8311,20.8774 12.9934,20.7036 13.1941,20.7036 L15.4491,20.7036 L15.4495,22.591 Z" id="XMLID_303_"></path>
                </g>
            </g>
            <g id="Group" fill="#ED1C24">
                <path d="M27.26,53.48 L21.246,53.48 C21.8966,49.699 25.86,48.017 27.651,40.74 C30.019,31.122 25.366,24.95 22.105,21.96 C22.09408,21.94717 22.3881,32.61 19.086,39.06 C20.0274,35.159 20.572,30.548 20.572,25.61 C20.572,11.59 16.19,0.22 10.785,0.22 C5.377,0.221 0.995,11.59 0.995,25.61 C0.995,39.63 5.377,51 10.782,51 C14.047,51 16.94,46.846 18.718,40.47 C19.4586,39.9917 20.722,39.9598 20.966,39.9598 C23.222,39.9598 25.03,42.8348 21.4581,47.6698 C19.5811,50.4628 18.9721,52.1688 18.8301,53.4748 L12.3391,53.4748 C11.6793,53.4748 11.3011,53.8281 11.3011,54.4433 L11.3011,59.8953 C9.8011,60.0045 8.6081,61.2743 8.6081,62.8303 L8.6081,63.0214 L28.3081005,63.0214 L28.3081,54.4574 C28.308621,53.8423 27.9307,53.4889 27.2711,53.4889 L27.26,53.48 Z M12.88,43.15 C10.561,43.15 8.681,36.229 8.681,27.7 C8.681,19.165 10.561,12.25 12.88,12.25 C12.97017,12.25 13.0598,12.26384 13.1485,12.28459 C12.5916,10.37659 11.8735,8.62259 11.0245,7.04859 C16.4945,13.78859 16.7545,21.78859 16.7645,21.77859 L16.7556,21.7637 C16.962,23.5897 17.0766,25.5937 17.0766,27.6957 C17.076079,36.2337 15.1946,43.1457 12.8766,43.1457 L12.88,43.15 Z" id="XMLID_364_"></path>
                <path d="M25,7.593 C23.296,7.593 21.91,8.98 21.91,10.683 C21.909727,12.388 23.297,13.773 25,13.773 C26.705,13.773 28.092,12.388 28.092,10.683 C28.092,8.979 26.705,7.593 25,7.593 Z M27.49,10.683 C27.49,12.056 26.373,13.173 25,13.173 C23.628,13.173 22.512,12.056 22.512,10.683 C22.512,9.311 23.629,8.195 25,8.195 C26.372,8.195 27.488,9.311 27.488,10.683 L27.49,10.683 Z" id="XMLID_297_"></path>
                <path d="M25.65,10.94 C25.9571,10.7898 26.1591,10.4418 26.1591,10.0528 C26.1591,9.6228 25.953,9.2898 25.5954,9.1423 C25.4452,9.07814 25.2787,9.05357 24.9784,9.05357 L23.8864,9.05357 L23.8864,12.31457 L24.5607,12.31457 L24.5607,11.13557 L25.033,11.13557 L25.6582,12.31457 L26.4171,12.31457 L25.7264,11.06657 C25.69501,11.00924 25.66907,10.96692 25.64996,10.93967 L25.65,10.94 Z M25.48,10.08 C25.48,10.3643 25.3122,10.5339 25.0306,10.5339 L24.5631,10.5339 L24.5631,9.6453 L24.9316,9.6453 C25.1114,9.6453 25.192,9.6652 25.2603,9.69478 C25.4405,9.76849 25.4787,9.94598 25.4787,10.08108 L25.48,10.08 Z" id="XMLID_294_"></path>
            </g>
        </g>
    </g>
</svg>