<?xml version="1.0" encoding="utf-8"?>
<!-- Generator: Adobe Illustrator 19.2.1, SVG Export Plug-In . SVG Version: 6.00 Build 0)  -->
<svg version="1.1" id="Layer_1" xmlns="http://www.w3.org/2000/svg" xmlns:xlink="http://www.w3.org/1999/xlink" x="0px" y="0px"
	 viewBox="0 0 155.9 31.2" style="enable-background:new 0 0 155.9 31.2;" xml:space="preserve">
<style type="text/css">
	.st0{fill:#FFFFFF;}
</style>
<rect width="155.9" height="31.2"/>
<g>
	<polygon class="st0" points="108.7,6.2 120.2,6.2 120.2,8.4 111.5,8.4 111.5,14.8 119.6,14.8 119.6,17 111.5,17 111.5,24.7 
		108.7,24.7 	"/>
	<polygon class="st0" points="124.6,6.2 128.4,6.2 134.3,22.6 140.8,6.2 144.5,6.2 144.5,24.7 141.7,24.7 141.7,13.3 141.8,10 
		136,24.7 132.4,24.7 127.2,9.9 127.4,13.3 127.4,24.7 124.6,24.7 	"/>
	<g>
		<path class="st0" d="M18.1,21.2c2.4,0,3.5-0.6,3.5-2.1c0-1.7-1.3-2.3-3.9-2.3h-1.9v4.4H18.1z M17.4,13.8c1.9,0,2.9-0.3,2.9-2
			c0-1.6-1.1-2.2-3.1-2.2h-1.4v4.2H17.4z M11.3,6.2h6.5c4.5,0,6.9,1.6,6.9,5.1c0,1.6-0.9,2.7-1.9,3.3v0.1c1.3,0.4,3.2,1.8,3.2,4.4
			c0,3.4-2,5.7-7.5,5.7h-7.3V6.2H11.3z"/>
		<polygon class="st0" points="30.4,6.2 42.6,6.2 42.6,9.7 34.9,9.7 34.9,13.8 42,13.8 42,17 34.9,17 34.9,21.2 43.2,21.2 
			43.2,24.7 30.4,24.7 		"/>
		<path class="st0" d="M46.9,15.6c0-6.5,3.4-9.7,10.2-9.7c2.8,0,4.4,0.5,5.8,1.1l-1.2,3.2c-1.8-0.5-2.5-0.7-4.5-0.7
			c-3.4-0.1-5.7,1.8-5.7,5.7c0,3.9,2.5,6,6.2,6c1.8,0,2.9-0.2,4.3-0.5l0.9,3.4c-1.8,0.7-3.3,0.9-5.7,0.9
			C50.4,25,46.9,21.6,46.9,15.6"/>
		<polygon class="st0" points="71.1,9.7 65.3,9.7 65.3,6.2 81.4,6.2 81.4,9.7 75.5,9.7 75.5,24.7 71.1,24.7 		"/>
		<polygon class="st0" points="84.9,6.2 89.4,6.2 89.4,16 89.3,18.4 91,15.8 97.2,6.2 101.7,6.2 101.7,24.7 97.2,24.7 97.2,14.9 
			97.4,12.4 95.6,15.1 89.4,24.7 84.9,24.7 		"/>
	</g>
</g>
</svg>
