<?xml version="1.0" standalone="no"?>
<!DOCTYPE svg PUBLIC "-//W3C//DTD SVG 1.1//EN"
  "http://www.w3.org/Graphics/SVG/1.1/DTD/svg11.dtd">
<svg width="164mm" height="173.99999999999997mm" viewBox="-81 -92.99999999999999 164 173.99999999999997" xmlns="http://www.w3.org/2000/svg" version="1.1">
	<title>svgOutput</title>
	<desc>made with tinkercad</desc>
<path d="M 82 79.99999999999999 L 80 79.99999999999999 L 78 79.99999999999999 L 77.99800109863281 79.99999999999999 L 71.00299835205078 79.99999999999999 L 54.00299835205078 79.99999999999999 L 54 79.99999999999999 L 52 79.99999999999999 L 51.99800109863281 79.99999999999999 L 28.003000259399414 79.99999999999999 L 28 79.99999999999999 L 26 79.99999999999999 L 25.99799919128418 79.99999999999999 L 2.003000020980835 79.99999999999999 L 2 79.99999999999999 L 0 79.99999999999999 L -0.003000000026077032 79.99999999999999 L -23.99799919128418 79.99999999999999 L -24 79.99999999999999 L -26 79.99999999999999 L -26.003000259399414 79.99999999999999 L -49.99800109863281 79.99999999999999 L -50 79.99999999999999 L -52 79.99999999999999 L -52.00299835205078 79.99999999999999 L -69.00299835205078 79.99999999999999 L -75.99800109863281 79.99999999999999 L -76 79.99999999999999 L -78 79.99999999999999 L -80 79.99999999999999 L -80 -34.99999999999999 L -78 -34.99999999999999 L -76 -34.99999999999999 L -75.99800109863281 -34.99999999999999 L -69.00299835205078 -34.99999999999999 L -52.00299835205078 -34.99999999999999 L -52 -34.99999999999999 L -50 -34.99999999999999 L -49.99800109863281 -34.99999999999999 L -26.003000259399414 -34.99999999999999 L -26 -34.99999999999999 L -24 -34.99999999999999 L -23.99799919128418 -34.99999999999999 L -0.003000000026077032 -34.99999999999999 L 0 -34.99999999999999 L 2 -34.99999999999999 L 2.003000020980835 -34.99999999999999 L 25.99799919128418 -34.99999999999999 L 26 -34.99999999999999 L 28 -34.99999999999999 L 28.003000259399414 -34.99999999999999 L 51.99800109863281 -34.99999999999999 L 52 -34.99999999999999 L 54 -34.99999999999999 L 54.00299835205078 -34.99999999999999 L 71.00299835205078 -34.99999999999999 L 77.99800109863281 -34.99999999999999 L 78 -34.99999999999999 L 80 -34.99999999999999 L 82 -34.99999999999999 L 82 79.99999999999999 M 64 -86.99999999999999 L 64 -56.999999999999986 L 62 -56.999999999999986 L 62 -51.999999999999986 L 54 -51.999999999999986 L 52 -51.999999999999986 L 52 -49.999999999999986 L 42 -49.999999999999986 L 42 -51.999999999999986 L 29.003000259399414 -51.999999999999986 L 29.003000259399414 -54.00299835205077 L 28 -54.00299835205077 L 26 -54.00299835205077 L 24.99799919128418 -54.00299835205077 L 24.99799919128418 -51.999999999999986 L 12 -51.999999999999986 L 12 -49.999999999999986 L 2 -49.999999999999986 L 2 -51.999999999999986 L 0 -51.999999999999986 L -10.998000144958496 -51.999999999999986 L -10.998000144958496 -54.00299835205077 L -15.003000259399414 -54.00299835205077 L -15.003000259399414 -51.999999999999986 L -24 -51.999999999999986 L -26 -51.999999999999986 L -28 -51.999999999999986 L -28 -49.999999999999986 L -38 -49.999999999999986 L -38 -51.999999999999986 L -43.99800109863281 -51.999999999999986 L -43.99800109863281 -54.00299835205077 L -48.00299835205078 -54.00299835205077 L -48.00299835205078 -51.999999999999986 L -50 -51.999999999999986 L -52 -51.999999999999986 L -53 -51.999999999999986 L -53 -49.999999999999986 L -68 -49.999999999999986 L -68 -51.999999999999986 L -68 -56.999999999999986 L -70 -56.999999999999986 L -70 -86.99999999999999 L -68 -86.99999999999999 L -68 -91.99999999999999 L -52 -91.99999999999999 L -50 -91.99999999999999 L -26 -91.99999999999999 L -24 -91.99999999999999 L 0 -91.99999999999999 L 2 -91.99999999999999 L 26 -91.99999999999999 L 28 -91.99999999999999 L 52 -91.99999999999999 L 54 -91.99999999999999 L 62 -91.99999999999999 L 62 -86.99999999999999 L 64 -86.99999999999999 M 54.00299835205078 19.997999191284176 L 54 19.997999191284176 L 52 19.997999191284176 L 51.99800109863281 19.997999191284176 L 51.99800109863281 30.003000259399407 L 52 30.003000259399407 L 54 30.003000259399407 L 54.00299835205078 30.003000259399407 L 54.00299835205078 19.997999191284176 M 54.00299835205078 -20.00300025939941 L 54 -20.00300025939941 L 52 -20.00300025939941 L 51.99800109863281 -20.00300025939941 L 51.99800109863281 -9.998000144958494 L 52 -9.998000144958494 L 54 -9.998000144958494 L 54.00299835205078 -9.998000144958494 L 54.00299835205078 -20.00300025939941 M 77.99800109863281 70.00299835205077 L 78 70.00299835205077 L 80 70.00299835205077 L 80 59.9980010986328 L 78 59.9980010986328 L 77.99800109863281 59.9980010986328 L 77.99800109863281 70.00299835205077 M 51.99800109863281 70.00299835205077 L 52 70.00299835205077 L 54 70.00299835205077 L 54.00299835205078 70.00299835205077 L 54.00299835205078 59.9980010986328 L 54 59.9980010986328 L 52 59.9980010986328 L 51.99800109863281 59.9980010986328 L 51.99800109863281 70.00299835205077 M 28 34.998001098632805 L 26 34.998001098632805 L 25.99799919128418 34.998001098632805 L 2.003000020980835 34.998001098632805 L 2 34.998001098632805 L 0 34.998001098632805 L -0.003000000026077032 34.998001098632805 L -23.99799919128418 34.998001098632805 L -24 34.998001098632805 L -26 34.998001098632805 L -26.003000259399414 34.998001098632805 L -49.99800109863281 34.998001098632805 L -50 34.998001098632805 L -52 34.998001098632805 L -52.00299835205078 34.998001098632805 L -69.00299835205078 34.998001098632805 L -69.00299835205078 55.00299835205077 L -52.00299835205078 55.00299835205077 L -52 55.00299835205077 L -50 55.00299835205077 L -49.99800109863281 55.00299835205077 L -26.003000259399414 55.00299835205077 L -26 55.00299835205077 L -24 55.00299835205077 L -23.99799919128418 55.00299835205077 L -0.003000000026077032 55.00299835205077 L 0 55.00299835205077 L 2 55.00299835205077 L 2.003000020980835 55.00299835205077 L 25.99799919128418 55.00299835205077 L 26 55.00299835205077 L 28 55.00299835205077 L 28.003000259399414 55.00299835205077 L 51.99800109863281 55.00299835205077 L 52 55.00299835205077 L 54 55.00299835205077 L 54.00299835205078 55.00299835205077 L 71.00299835205078 55.00299835205077 L 71.00299835205078 34.998001098632805 L 54.00299835205078 34.998001098632805 L 54 34.998001098632805 L 52 34.998001098632805 L 51.99800109863281 34.998001098632805 L 28.003000259399414 34.998001098632805 L 28 34.998001098632805 M 28 -5.002999782562255 L 26 -5.002999782562255 L 25.99799919128418 -5.002999782562255 L 2.003000020980835 -5.002999782562255 L 2 -5.002999782562255 L 0 -5.002999782562255 L -0.003000000026077032 -5.002999782562255 L -23.99799919128418 -5.002999782562255 L -24 -5.002999782562255 L -26 -5.002999782562255 L -26.003000259399414 -5.002999782562255 L -49.99800109863281 -5.002999782562255 L -50 -5.002999782562255 L -52 -5.002999782562255 L -52.00299835205078 -5.002999782562255 L -69.00299835205078 -5.002999782562255 L -69.00299835205078 15.00300025939941 L -52.00299835205078 15.00300025939941 L -52 15.00300025939941 L -50 15.00300025939941 L -49.99800109863281 15.00300025939941 L -26.003000259399414 15.00300025939941 L -26 15.00300025939941 L -24 15.00300025939941 L -23.99799919128418 15.00300025939941 L -0.003000000026077032 15.00300025939941 L 0 15.00300025939941 L 2 15.00300025939941 L 2.003000020980835 15.00300025939941 L 25.99799919128418 15.00300025939941 L 26 15.00300025939941 L 28 15.00300025939941 L 28.003000259399414 15.00300025939941 L 51.99800109863281 15.00300025939941 L 52 15.00300025939941 L 54 15.00300025939941 L 54.00299835205078 15.00300025939941 L 71.00299835205078 15.00300025939941 L 71.00299835205078 -5.002999782562255 L 54.00299835205078 -5.002999782562255 L 54 -5.002999782562255 L 52 -5.002999782562255 L 51.99800109863281 -5.002999782562255 L 28.003000259399414 -5.002999782562255 L 28 -5.002999782562255 M 25.99799919128418 70.00299835205077 L 26 70.00299835205077 L 28 70.00299835205077 L 28.003000259399414 70.00299835205077 L 28.003000259399414 59.9980010986328 L 28 59.9980010986328 L 26 59.9980010986328 L 25.99799919128418 59.9980010986328 L 25.99799919128418 70.00299835205077 M 25.99799919128418 30.003000259399407 L 26 30.003000259399407 L 28 30.003000259399407 L 28.003000259399414 30.003000259399407 L 28.003000259399414 19.997999191284176 L 28 19.997999191284176 L 26 19.997999191284176 L 25.99799919128418 19.997999191284176 L 25.99799919128418 30.003000259399407 M 25.99799919128418 -9.998000144958494 L 26 -9.998000144958494 L 28 -9.998000144958494 L 28.003000259399414 -9.998000144958494 L 28.003000259399414 -20.00300025939941 L 28 -20.00300025939941 L 26 -20.00300025939941 L 25.99799919128418 -20.00300025939941 L 25.99799919128418 -9.998000144958494 M -0.003000000026077032 70.00299835205077 L 0 70.00299835205077 L 2 70.00299835205077 L 2.003000020980835 70.00299835205077 L 2.003000020980835 59.9980010986328 L 2 59.9980010986328 L 0 59.9980010986328 L -0.003000000026077032 59.9980010986328 L -0.003000000026077032 70.00299835205077 M -0.003000000026077032 30.003000259399407 L 0 30.003000259399407 L 2 30.003000259399407 L 2.003000020980835 30.003000259399407 L 2.003000020980835 19.997999191284176 L 2 19.997999191284176 L 0 19.997999191284176 L -0.003000000026077032 19.997999191284176 L -0.003000000026077032 30.003000259399407 M -0.003000000026077032 -9.998000144958494 L 0 -9.998000144958494 L 2 -9.998000144958494 L 2.003000020980835 -9.998000144958494 L 2.003000020980835 -20.00300025939941 L 2 -20.00300025939941 L 0 -20.00300025939941 L -0.003000000026077032 -20.00300025939941 L -0.003000000026077032 -9.998000144958494 M -26.003000259399414 70.00299835205077 L -26 70.00299835205077 L -24 70.00299835205077 L -23.99799919128418 70.00299835205077 L -23.99799919128418 59.9980010986328 L -24 59.9980010986328 L -26 59.9980010986328 L -26.003000259399414 59.9980010986328 L -26.003000259399414 70.00299835205077 M -26.003000259399414 30.003000259399407 L -26 30.003000259399407 L -24 30.003000259399407 L -23.99799919128418 30.003000259399407 L -23.99799919128418 19.997999191284176 L -24 19.997999191284176 L -26 19.997999191284176 L -26.003000259399414 19.997999191284176 L -26.003000259399414 30.003000259399407 M -26.003000259399414 -9.998000144958494 L -26 -9.998000144958494 L -24 -9.998000144958494 L -23.99799919128418 -9.998000144958494 L -23.99799919128418 -20.00300025939941 L -24 -20.00300025939941 L -26 -20.00300025939941 L -26.003000259399414 -20.00300025939941 L -26.003000259399414 -9.998000144958494 M -52.00299835205078 70.00299835205077 L -52 70.00299835205077 L -50 70.00299835205077 L -49.99800109863281 70.00299835205077 L -49.99800109863281 59.9980010986328 L -50 59.9980010986328 L -52 59.9980010986328 L -52.00299835205078 59.9980010986328 L -52.00299835205078 70.00299835205077 M -52.00299835205078 30.003000259399407 L -52 30.003000259399407 L -50 30.003000259399407 L -49.99800109863281 30.003000259399407 L -49.99800109863281 19.997999191284176 L -50 19.997999191284176 L -52 19.997999191284176 L -52.00299835205078 19.997999191284176 L -52.00299835205078 30.003000259399407 M -52.00299835205078 -9.998000144958494 L -52 -9.998000144958494 L -50 -9.998000144958494 L -49.99800109863281 -9.998000144958494 L -49.99800109863281 -20.00300025939941 L -50 -20.00300025939941 L -52 -20.00300025939941 L -52.00299835205078 -20.00300025939941 L -52.00299835205078 -9.998000144958494 M 80 -20.00300025939941 L 78 -20.00300025939941 L 77.99800109863281 -20.00300025939941 L 77.99800109863281 -9.998000144958494 L 78 -9.998000144958494 L 80 -9.998000144958494 L 80 -20.00300025939941 M 80 19.997999191284176 L 78 19.997999191284176 L 77.99800109863281 19.997999191284176 L 77.99800109863281 30.003000259399407 L 78 30.003000259399407 L 80 30.003000259399407 L 80 19.997999191284176 M -78 70.00299835205077 L -76 70.00299835205077 L -75.99800109863281 70.00299835205077 L -75.99800109863281 59.9980010986328 L -76 59.9980010986328 L -78 59.9980010986328 L -78 70.00299835205077 M -78 30.003000259399407 L -76 30.003000259399407 L -75.99800109863281 30.003000259399407 L -75.99800109863281 19.997999191284176 L -76 19.997999191284176 L -78 19.997999191284176 L -78 30.003000259399407 M -78 -9.998000144958494 L -76 -9.998000144958494 L -75.99800109863281 -9.998000144958494 L -75.99800109863281 -20.00300025939941 L -76 -20.00300025939941 L -78 -20.00300025939941 L -78 -9.998000144958494 z" fill="none" stroke="rgb(255,0,0)" stroke-width="0.001mm" />
</svg>