<?xml version="1.0" standalone="no"?>
<!DOCTYPE svg PUBLIC "-//W3C//DTD SVG 1.1//EN"
  "http://www.w3.org/Graphics/SVG/1.1/DTD/svg11.dtd">
<svg width="199mm" height="187.99999999999997mm" viewBox="-98 -92.99999999999999 199 187.99999999999997" xmlns="http://www.w3.org/2000/svg" version="1.1">
	<title>svgOutput</title>
	<desc>made with tinkercad</desc>
<path d="M -97 93.99999999999999 L -97 45.99999999999999 L -97 -91.99999999999999 L -95.00299835205078 -91.99999999999999 L -93 -91.99999999999999 L -92.99800109863281 -91.99999999999999 L -43.00299835205078 -91.99999999999999 L -22.99799919128418 -91.99999999999999 L 24.99799919128418 -91.99999999999999 L 45.00299835205078 -91.99999999999999 L 95.99800109863281 -91.99999999999999 L 96 -91.99999999999999 L 98.00299835205078 -91.99999999999999 L 100 -91.99999999999999 L 100 45.99999999999999 L 100 93.99999999999999 L 98.00299835205078 93.99999999999999 L 96 93.99999999999999 L 95.99800109863281 93.99999999999999 L 45.00299835205078 93.99999999999999 L 24.99799919128418 93.99999999999999 L -22.99799919128418 93.99999999999999 L -43.00299835205078 93.99999999999999 L -92.99800109863281 93.99999999999999 L -93 93.99999999999999 L -95.00299835205078 93.99999999999999 L -97 93.99999999999999 M 95.99800109863281 1.003000020980835 L 96 1.003000020980835 L 98.00299835205078 1.003000020980835 L 98.00299835205078 -19.00300025939941 L 96 -19.00300025939941 L 95.99800109863281 -19.00300025939941 L 95.99800109863281 1.003000020980835 M -92.99800109863281 -76.00299835205077 L -93 -76.00299835205077 L -95.00299835205078 -76.00299835205077 L -95.00299835205078 -55.9980010986328 L -93 -55.9980010986328 L -92.99800109863281 -55.9980010986328 L -92.99800109863281 -65.9980010986328 L -92.99800109863281 -68.00299835205077 L -92.99800109863281 -76.00299835205077 M 95.99800109863281 -55.9980010986328 L 96 -55.9980010986328 L 98.00299835205078 -55.9980010986328 L 98.00299835205078 -76.00299835205077 L 96 -76.00299835205077 L 95.99800109863281 -76.00299835205077 L 95.99800109863281 -68.00299835205077 L 95.99800109863281 -65.9980010986328 L 95.99800109863281 -55.9980010986328 M 95.99800109863281 76.00299835205077 L 96 76.00299835205077 L 98.00299835205078 76.00299835205077 L 98.00299835205078 55.9980010986328 L 96 55.9980010986328 L 95.99800109863281 55.9980010986328 L 95.99800109863281 76.00299835205077 M -95.00299835205078 76.00299835205077 L -93 76.00299835205077 L -92.99800109863281 76.00299835205077 L -92.99800109863281 55.9980010986328 L -93 55.9980010986328 L -95.00299835205078 55.9980010986328 L -95.00299835205078 76.00299835205077 M -95.00299835205078 1.003000020980835 L -93 1.003000020980835 L -92.99800109863281 1.003000020980835 L -92.99800109863281 -19.00300025939941 L -93 -19.00300025939941 L -95.00299835205078 -19.00300025939941 L -95.00299835205078 1.003000020980835 M -77.00299835205078 8.998000144958494 L -77.00299835205078 39.002998352050774 L -74.99800109863281 39.002998352050774 L -74.99800109863281 8.998000144958494 L -77.00299835205078 8.998000144958494 M -51.00299835205078 8.998000144958494 L -51.00299835205078 39.002998352050774 L -48.99800109863281 39.002998352050774 L -48.99800109863281 8.998000144958494 L -51.00299835205078 8.998000144958494 M -25.003000259399414 8.998000144958494 L -25.003000259399414 39.002998352050774 L -22.99799919128418 39.002998352050774 L -22.99799919128418 8.998000144958494 L -25.003000259399414 8.998000144958494 M -0.003000000026077032 8.998000144958494 L -0.003000000026077032 39.002998352050774 L 2.003000020980835 39.002998352050774 L 2.003000020980835 8.998000144958494 L -0.003000000026077032 8.998000144958494 M 26.99799919128418 8.998000144958494 L 26.99799919128418 39.002998352050774 L 29.003000259399414 39.002998352050774 L 29.003000259399414 8.998000144958494 L 26.99799919128418 8.998000144958494 M 52.99800109863281 8.998000144958494 L 52.99800109863281 39.002998352050774 L 55.00299835205078 39.002998352050774 L 55.00299835205078 8.998000144958494 L 52.99800109863281 8.998000144958494 M 78.99800109863281 8.998000144958494 L 78.99800109863281 39.002998352050774 L 81.00299835205078 39.002998352050774 L 81.00299835205078 8.998000144958494 L 78.99800109863281 8.998000144958494 M 45.00299835205078 -90.00299835205077 L 24.99799919128418 -90.00299835205077 L 24.99799919128418 -87.9980010986328 L 45.00299835205078 -87.9980010986328 L 45.00299835205078 -90.00299835205077 M -22.99799919128418 -90.00299835205077 L -43.00299835205078 -90.00299835205077 L -43.00299835205078 -87.9980010986328 L -22.99799919128418 -87.9980010986328 L -22.99799919128418 -90.00299835205077 M -51.45800018310547 -65.9980010986328 L -51.45800018310547 -68.00299835205077 L -66.46299743652344 -68.00299835205077 L -66.46299743652344 -65.9980010986328 L -51.45800018310547 -65.9980010986328 M 9.503000259399414 -65.9980010986328 L 9.503000259399414 -68.00299835205077 L -5.502999782562256 -68.00299835205077 L -5.502999782562256 -65.9980010986328 L 9.503000259399414 -65.9980010986328 M 70.46299743652344 -68.00299835205077 L 55.45800018310547 -68.00299835205077 L 55.45800018310547 -65.9980010986328 L 70.46299743652344 -65.9980010986328 L 70.46299743652344 -68.00299835205077 M 45.00299835205078 89.9980010986328 L 24.99799919128418 89.9980010986328 L 24.99799919128418 92.00299835205077 L 45.00299835205078 92.00299835205077 L 45.00299835205078 89.9980010986328 M -22.99799919128418 89.9980010986328 L -43.00299835205078 89.9980010986328 L -43.00299835205078 92.00299835205077 L -22.99799919128418 92.00299835205077 L -22.99799919128418 89.9980010986328 z" fill="none" stroke="rgb(255,0,0)" stroke-width="0.001mm" />
</svg>