<?xml version="1.0" standalone="no"?>
<!DOCTYPE svg PUBLIC "-//W3C//DTD SVG 1.1//EN"
  "http://www.w3.org/Graphics/SVG/1.1/DTD/svg11.dtd">
<svg width="144mm" height="135.99999999999997mm" viewBox="-71 -67.99999999999999 144 135.99999999999997" xmlns="http://www.w3.org/2000/svg" version="1.1">
	<title>svgOutput</title>
	<desc>made with tinkercad</desc>
<path d="M 37 -66.99999999999999 L 67 -66.99999999999999 L 67 -64.99999999999999 L 72 -64.99999999999999 L 72 64.99999999999999 L 67 64.99999999999999 L 67 66.99999999999999 L 37 66.99999999999999 L 37 64.99999999999999 L 34.00299835205078 64.99999999999999 L 32 64.99999999999999 L 32 54.999999999999986 L 30 54.999999999999986 L 30 44.99999999999999 L 32 44.99999999999999 L 32 32.00199890136718 L 34.00299835205078 32.00199890136718 L 34.00299835205078 27.997999191284173 L 32 27.997999191284173 L 32 14.999999999999996 L 30 14.999999999999996 L 30 4.999999999999999 L 32 4.999999999999999 L 32 -7.998000144958494 L 34.00299835205078 -7.998000144958494 L 34.00299835205078 -12.00300025939941 L 32 -12.00300025939941 L 32 -24.999999999999993 L 30 -24.999999999999993 L 30 -34.99999999999999 L 32 -34.99999999999999 L 32 -40.998001098632805 L 34.00299835205078 -40.998001098632805 L 34.00299835205078 -45.002998352050774 L 32 -45.002998352050774 L 32 -49.999999999999986 L 30 -49.999999999999986 L 30 -64.99999999999999 L 32 -64.99999999999999 L 34.00299835205078 -64.99999999999999 L 37 -64.99999999999999 L 37 -66.99999999999999 M -13 -66.99999999999999 L 17 -66.99999999999999 L 17 -64.99999999999999 L 22 -64.99999999999999 L 22 64.99999999999999 L 17 64.99999999999999 L 17 66.99999999999999 L -13 66.99999999999999 L -13 64.99999999999999 L -15.998000144958496 64.99999999999999 L -18 64.99999999999999 L -18 54.999999999999986 L -20 54.999999999999986 L -20 44.99999999999999 L -18 44.99999999999999 L -18 32.00199890136718 L -15.998000144958496 32.00199890136718 L -15.998000144958496 27.997999191284173 L -18 27.997999191284173 L -18 14.999999999999996 L -20 14.999999999999996 L -20 4.999999999999999 L -18 4.999999999999999 L -18 -7.998000144958494 L -15.998000144958496 -7.998000144958494 L -15.998000144958496 -12.00300025939941 L -18 -12.00300025939941 L -18 -24.999999999999993 L -20 -24.999999999999993 L -20 -34.99999999999999 L -18 -34.99999999999999 L -18 -40.998001098632805 L -15.998000144958496 -40.998001098632805 L -15.998000144958496 -45.002998352050774 L -18 -45.002998352050774 L -18 -49.999999999999986 L -20 -49.999999999999986 L -20 -64.99999999999999 L -18 -64.99999999999999 L -15.998000144958496 -64.99999999999999 L -13 -64.99999999999999 L -13 -66.99999999999999 M -63 -66.99999999999999 L -33 -66.99999999999999 L -33 -64.99999999999999 L -28 -64.99999999999999 L -28 64.99999999999999 L -33 64.99999999999999 L -33 66.99999999999999 L -63 66.99999999999999 L -63 64.99999999999999 L -65.99800109863281 64.99999999999999 L -68 64.99999999999999 L -68 54.999999999999986 L -70 54.999999999999986 L -70 44.99999999999999 L -68 44.99999999999999 L -68 32.00199890136718 L -65.99800109863281 32.00199890136718 L -65.99800109863281 27.997999191284173 L -68 27.997999191284173 L -68 14.999999999999996 L -70 14.999999999999996 L -70 4.999999999999999 L -68 4.999999999999999 L -68 -7.998000144958494 L -65.99800109863281 -7.998000144958494 L -65.99800109863281 -12.00300025939941 L -68 -12.00300025939941 L -68 -24.999999999999993 L -70 -24.999999999999993 L -70 -34.99999999999999 L -68 -34.99999999999999 L -68 -40.998001098632805 L -65.99800109863281 -40.998001098632805 L -65.99800109863281 -45.002998352050774 L -68 -45.002998352050774 L -68 -49.999999999999986 L -70 -49.999999999999986 L -70 -64.99999999999999 L -68 -64.99999999999999 L -65.99800109863281 -64.99999999999999 L -63 -64.99999999999999 L -63 -66.99999999999999 z" fill="none" stroke="rgb(255,0,0)" stroke-width="0.001mm" />
</svg>