<?xml version="1.0" standalone="no"?>
<!DOCTYPE svg PUBLIC "-//W3C//DTD SVG 1.1//EN"
  "http://www.w3.org/Graphics/SVG/1.1/DTD/svg11.dtd">
<svg width="136mm" height="185.99999999999997mm" viewBox="-68 -94.99999999999999 136 185.99999999999997" xmlns="http://www.w3.org/2000/svg" version="1.1">
	<title>svgOutput</title>
	<desc>made with tinkercad</desc>
<path d="M -67 -79.99999999999999 L -65 -79.99999999999999 L -65 -93.99999999999999 L -37.983001708984375 -93.99999999999999 L -22.976999282836914 -93.99999999999999 L 22.97800064086914 -93.99999999999999 L 37.983001708984375 -93.99999999999999 L 65 -93.99999999999999 L 65 -79.99999999999999 L 67 -79.99999999999999 L 67 -59.999999999999986 L 65 -59.999999999999986 L 65 -22.999999999999996 L 67 -22.999999999999996 L 67 -2.999999999999999 L 65 -2.999999999999999 L 65 51.999999999999986 L 67 51.999999999999986 L 67 71.99999999999999 L 65 71.99999999999999 L 65 89.99999999999999 L 37.983001708984375 89.99999999999999 L 22.97800064086914 89.99999999999999 L -22.976999282836914 89.99999999999999 L -37.983001708984375 89.99999999999999 L -65 89.99999999999999 L -65 71.95300292968749 L -67 71.95300292968749 L -67 51.95299911499022 L -65 51.95299911499022 L -65 -2.999999999999999 L -67 -2.999999999999999 L -67 -22.999999999999996 L -65 -22.999999999999996 L -65 -59.999999999999986 L -67 -59.999999999999986 L -67 -79.99999999999999 M 37.983001708984375 -72.00299835205077 L 22.97800064086914 -72.00299835205077 L 22.97800064086914 -69.9980010986328 L 37.983001708984375 -69.9980010986328 L 37.983001708984375 -72.00299835205077 M -22.976999282836914 -72.00299835205077 L -37.983001708984375 -72.00299835205077 L -37.983001708984375 -69.9980010986328 L -22.976999282836914 -69.9980010986328 L -22.976999282836914 -72.00299835205077 z" fill="none" stroke="rgb(255,0,0)" stroke-width="0.001mm" />
</svg>