<svg width="32" height="32" viewBox="0 0 32 32" fill="none" xmlns="http://www.w3.org/2000/svg">
<path fill-rule="evenodd" clip-rule="evenodd" d="M16 32C24.8366 32 32 24.8366 32 16C32 7.16344 24.8366 0 16 0C7.16344 0 0 7.16344 0 16C0 24.8366 7.16344 32 16 32Z" fill="#3C80E4"/>
<path d="M11.4445 10.3375V13.662C11.4445 13.9688 11.6932 14.2175 12 14.2175C12.3068 14.2175 12.5556 13.9688 12.5556 13.662V10.3375C12.5556 10.0307 12.3068 9.78198 12 9.78198C11.6932 9.78198 11.4445 10.0307 11.4445 10.3375Z" fill="white"/>
<path d="M10.8383 10.6876L13.7173 12.3498C14.3588 12.7202 13.8033 13.6824 13.1618 13.3121L10.2827 11.6498C9.64123 11.2795 10.1968 10.3172 10.8383 10.6876Z" fill="white"/>
<path d="M13.7173 11.6498L10.8383 13.3121C10.1968 13.6824 9.64123 12.7202 10.2827 12.3498L13.1618 10.6876C13.8033 10.3172 14.3588 11.2795 13.7173 11.6498Z" fill="white"/>
<path d="M15.7778 16.4444H20.4586C21.9314 16.4444 23.1253 15.2505 23.1253 13.7777C23.1253 12.305 21.9314 11.1111 20.4586 11.1111C19.9635 11.1111 19.4868 11.2468 19.0724 11.4993C18.758 11.6909 18.6584 12.1011 18.85 12.4155C19.0416 12.73 19.4518 12.8295 19.7662 12.6379C19.9731 12.5119 20.2101 12.4444 20.4586 12.4444C21.195 12.4444 21.7919 13.0414 21.7919 13.7777C21.7919 14.5141 21.195 15.1111 20.4586 15.1111H15.7778C15.4096 15.1111 15.1111 15.4096 15.1111 15.7777C15.1111 16.1459 15.4096 16.4444 15.7778 16.4444Z" fill="#B2DEF7"/>
<path d="M11.3333 19.1109H19.1122C19.6031 19.1109 20.0011 19.5089 20.0011 19.9998C20.0011 20.4907 19.6031 20.8887 19.1122 20.8887C18.9463 20.8887 18.7886 20.8438 18.6508 20.7598C18.3364 20.5682 17.9262 20.6678 17.7346 20.9822C17.543 21.2966 17.6426 21.7068 17.957 21.8984C18.3024 22.1089 18.6998 22.222 19.1122 22.222C20.3395 22.222 21.3344 21.2271 21.3344 19.9998C21.3344 18.7725 20.3395 17.7776 19.1122 17.7776H11.3333C10.9651 17.7776 10.6666 18.0761 10.6666 18.4443C10.6666 18.8124 10.9651 19.1109 11.3333 19.1109Z" fill="#B2DEF7"/>
</svg>
