<svg width="32" height="32" viewBox="0 0 32 32" fill="none" xmlns="http://www.w3.org/2000/svg">
<path fill-rule="evenodd" clip-rule="evenodd" d="M16 32C24.8366 32 32 24.8366 32 16C32 7.16344 24.8366 0 16 0C7.16344 0 0 7.16344 0 16C0 24.8366 7.16344 32 16 32Z" fill="#3C80E4"/>
<path fill-rule="evenodd" clip-rule="evenodd" d="M19.5556 17.7779C21.5192 17.7779 23.1111 16.186 23.1111 14.2223C23.1111 12.2586 21.5192 10.6667 19.5556 10.6667C17.5919 10.6667 16 12.2586 16 14.2223C16 16.186 17.5919 17.7779 19.5556 17.7779Z" fill="url(#paint0_linear)"/>
<path d="M19.093 7.76001L19.3245 9.07309C19.4789 9.94847 18.1658 10.18 18.0115 9.30462L17.7799 7.99154C17.6256 7.11616 18.9386 6.88463 19.093 7.76001Z" fill="#FFB300"/>
<path d="M21.0996 19.1399L21.3311 20.453C21.4855 21.3284 20.1724 21.5599 20.018 20.6845L19.7865 19.3714C19.6322 18.496 20.9452 18.2645 21.0996 19.1399Z" fill="#FFB300"/>
<path d="M23.798 9.32567L23.0333 10.4179C22.5234 11.146 21.4312 10.3812 21.9411 9.65311L22.7058 8.5609C23.2157 7.83277 24.3079 8.59754 23.798 9.32567Z" fill="#FFB300"/>
<path d="M17.17 18.7914L16.4052 19.8836C15.8954 20.6117 14.8032 19.8469 15.313 19.1188L16.0778 18.0266C16.5876 17.2985 17.6798 18.0632 17.17 18.7914Z" fill="#FFB300"/>
<path d="M14.6589 9.97976L15.7511 10.7445C16.4793 11.2544 15.7145 12.3466 14.9864 11.8367L13.8942 11.072C13.166 10.5621 13.9308 9.46991 14.6589 9.97976Z" fill="#FFB300"/>
<path d="M24.1247 16.6078L25.2169 17.3726C25.945 17.8824 25.1803 18.9746 24.4521 18.4648L23.3599 17.7C22.6318 17.1902 23.3965 16.098 24.1247 16.6078Z" fill="#FFB300"/>
<path d="M26.0178 13.7597L24.7047 13.9913C23.8294 14.1456 23.5978 12.8326 24.4732 12.6782L25.7863 12.4467C26.6617 12.2923 26.8932 13.6054 26.0178 13.7597Z" fill="#FFB300"/>
<path d="M14.6379 15.7663L13.3248 15.9979C12.4494 16.1522 12.2179 14.8391 13.0933 14.6848L14.4063 14.4533C15.2817 14.2989 15.5133 15.612 14.6379 15.7663Z" fill="#FFB300"/>
<path fill-rule="evenodd" clip-rule="evenodd" d="M10.6666 22.6667C8.70296 22.6667 7.11108 21.0748 7.11108 19.1111C7.11108 17.1475 8.70296 15.5556 10.6666 15.5556C11.037 15.5556 11.3941 15.6122 11.7299 15.7173C12.2307 14.0798 13.7541 12.8889 15.5555 12.8889C17.7647 12.8889 19.5555 14.6798 19.5555 16.8889C19.5555 17.0974 19.5396 17.3022 19.5088 17.5021C19.7999 17.393 20.1152 17.3334 20.4444 17.3334C21.9172 17.3334 23.1111 18.5273 23.1111 20C23.1111 21.4728 21.9172 22.6667 20.4444 22.6667H10.6666Z" fill="black" fill-opacity="0.02"/>
<path fill-rule="evenodd" clip-rule="evenodd" d="M10.6666 22.889C8.70296 22.889 7.11108 21.2971 7.11108 19.3334C7.11108 17.3697 8.70296 15.7779 10.6666 15.7779C11.037 15.7779 11.3941 15.8345 11.7299 15.9396C12.2307 14.3021 13.7541 13.1112 15.5555 13.1112C17.7647 13.1112 19.5555 14.9021 19.5555 17.1112C19.5555 17.3197 19.5396 17.5245 19.5088 17.7244C19.7999 17.6153 20.1152 17.5556 20.4444 17.5556C21.9172 17.5556 23.1111 18.7496 23.1111 20.2223C23.1111 21.6951 21.9172 22.889 20.4444 22.889H10.6666Z" fill="black" fill-opacity="0.02"/>
<path fill-rule="evenodd" clip-rule="evenodd" d="M10.6666 23.1111C8.70296 23.1111 7.11108 21.5193 7.11108 19.5556C7.11108 17.5919 8.70296 16 10.6666 16C11.037 16 11.3941 16.0567 11.7299 16.1617C12.2307 14.5243 13.7541 13.3334 15.5555 13.3334C17.7647 13.3334 19.5555 15.1242 19.5555 17.3334C19.5555 17.5419 19.5396 17.7467 19.5088 17.9466C19.7999 17.8375 20.1152 17.7778 20.4444 17.7778C21.9172 17.7778 23.1111 18.9717 23.1111 20.4445C23.1111 21.9172 21.9172 23.1111 20.4444 23.1111H10.6666Z" fill="black" fill-opacity="0.02"/>
<path d="M19.7777 16.4445C19.7777 14.1126 17.8874 12.2223 15.5555 12.2223C13.7603 12.2223 12.185 13.3527 11.5862 15.0017C11.288 14.9271 10.9798 14.889 10.6666 14.889C8.58022 14.889 6.88885 16.5803 6.88885 18.6667C6.88885 20.7531 8.58022 22.4445 10.6666 22.4445H20.4444C22.0399 22.4445 23.3333 21.1511 23.3333 19.5556C23.3333 17.9601 22.0399 16.6667 20.4444 16.6667C20.2139 16.6667 19.9869 16.6938 19.7671 16.7466C19.7742 16.6464 19.7777 16.5457 19.7777 16.4445Z" fill="black" fill-opacity="0.02"/>
<path fill-rule="evenodd" clip-rule="evenodd" d="M10.6666 22.2222C8.70296 22.2222 7.11108 20.6304 7.11108 18.6667C7.11108 16.703 8.70296 15.1111 10.6666 15.1111C11.037 15.1111 11.3941 15.1678 11.7299 15.2728C12.2307 13.6353 13.7541 12.4445 15.5555 12.4445C17.7647 12.4445 19.5555 14.2353 19.5555 16.4445C19.5555 16.653 19.5396 16.8577 19.5088 17.0576C19.7999 16.9486 20.1152 16.8889 20.4444 16.8889C21.9172 16.8889 23.1111 18.0828 23.1111 19.5556C23.1111 21.0283 21.9172 22.2222 20.4444 22.2222H10.6666Z" fill="white"/>
<path opacity="0.24" fill-rule="evenodd" clip-rule="evenodd" d="M10.6666 22.2223C12.6303 22.2223 14.2222 20.6304 14.2222 18.6668C14.2222 16.7031 12.6303 15.1112 10.6666 15.1112C8.70296 15.1112 7.11108 16.7031 7.11108 18.6668C7.11108 20.6304 8.70296 22.2223 10.6666 22.2223Z" fill="url(#paint1_radial)"/>
<path opacity="0.24" fill-rule="evenodd" clip-rule="evenodd" d="M20.4444 22.2222C21.9172 22.2222 23.1111 21.0283 23.1111 19.5556C23.1111 18.0828 21.9172 16.8889 20.4444 16.8889C18.9717 16.8889 17.7778 18.0828 17.7778 19.5556C17.7778 21.0283 18.9717 22.2222 20.4444 22.2222Z" fill="url(#paint2_radial)"/>
<path fill-rule="evenodd" clip-rule="evenodd" d="M15.5555 20.4445C17.7647 20.4445 19.5555 18.6536 19.5555 16.4445C19.5555 14.2353 17.7647 12.4445 15.5555 12.4445C13.3464 12.4445 11.5555 14.2353 11.5555 16.4445C11.5555 18.6536 13.3464 20.4445 15.5555 20.4445Z" fill="white"/>
<defs>
<linearGradient id="paint0_linear" x1="20.6943" y1="8.21836" x2="15.7975" y2="13.052" gradientUnits="userSpaceOnUse">
<stop stop-color="#FFCD44"/>
<stop offset="1" stop-color="#FFB403"/>
</linearGradient>
<radialGradient id="paint1_radial" cx="0" cy="0" r="1" gradientUnits="userSpaceOnUse" gradientTransform="translate(12.993 16.1251) rotate(-90) scale(3.55556)">
<stop stop-color="#777AB4"/>
<stop offset="1" stop-color="#777AB4" stop-opacity="0.01"/>
</radialGradient>
<radialGradient id="paint2_radial" cx="0" cy="0" r="1" gradientUnits="userSpaceOnUse" gradientTransform="translate(18.2135 16.5404) rotate(-90) scale(3.39138)">
<stop stop-color="#777AB4"/>
<stop offset="1" stop-color="#777AB4" stop-opacity="0.01"/>
</radialGradient>
</defs>
</svg>
