<svg width="32" height="32" viewBox="0 0 32 32" fill="none" xmlns="http://www.w3.org/2000/svg">
<path fill-rule="evenodd" clip-rule="evenodd" d="M16 32C24.8366 32 32 24.8366 32 16C32 7.16344 24.8366 0 16 0C7.16344 0 0 7.16344 0 16C0 24.8366 7.16344 32 16 32Z" fill="#3C80E4"/>
<path fill-rule="evenodd" clip-rule="evenodd" d="M19.5556 16C21.5192 16 23.1111 14.4081 23.1111 12.4445C23.1111 10.4808 21.5192 8.88892 19.5556 8.88892C17.5919 8.88892 16 10.4808 16 12.4445C16 14.4081 17.5919 16 19.5556 16Z" fill="url(#paint0_linear)"/>
<path d="M19.093 5.98218L19.3245 7.29526C19.4789 8.17064 18.1658 8.40217 18.0115 7.52679L17.7799 6.21371C17.6256 5.33832 18.9386 5.10679 19.093 5.98218Z" fill="#FFB300"/>
<path d="M21.0996 17.3622L21.3311 18.6753C21.4855 19.5506 20.1724 19.7822 20.018 18.9068L19.7865 17.5937C19.6322 16.7183 20.9452 16.4868 21.0996 17.3622Z" fill="#FFB300"/>
<path d="M23.798 7.54784L23.0332 8.64004C22.5234 9.36818 21.4312 8.60341 21.941 7.87528L22.7058 6.78307C23.2156 6.05494 24.3078 6.81971 23.798 7.54784Z" fill="#FFB300"/>
<path d="M17.17 17.0137L16.4052 18.1059C15.8954 18.834 14.8032 18.0692 15.313 17.3411L16.0778 16.2489C16.5876 15.5208 17.6798 16.2855 17.17 17.0137Z" fill="#FFB300"/>
<path d="M14.6589 8.20205L15.7511 8.96682C16.4793 9.47666 15.7145 10.5689 14.9864 10.059L13.8942 9.29425C13.166 8.78441 13.9308 7.6922 14.6589 8.20205Z" fill="#FFB300"/>
<path d="M24.1247 14.83L25.2169 15.5947C25.945 16.1046 25.1803 17.1968 24.4521 16.6869L23.3599 15.9222C22.6318 15.4123 23.3965 14.3201 24.1247 14.83Z" fill="#FFB300"/>
<path d="M26.0178 11.9819L24.7047 12.2134C23.8294 12.3678 23.5978 11.0547 24.4732 10.9004L25.7863 10.6688C26.6617 10.5145 26.8932 11.8276 26.0178 11.9819Z" fill="#FFB300"/>
<path d="M14.6379 13.9886L13.3248 14.2202C12.4494 14.3745 12.2179 13.0614 13.0933 12.9071L14.4063 12.6756C15.2817 12.5212 15.5133 13.8343 14.6379 13.9886Z" fill="#FFB300"/>
<path fill-rule="evenodd" clip-rule="evenodd" d="M10.6666 20.889C8.70296 20.889 7.11108 19.2971 7.11108 17.3334C7.11108 15.3697 8.70296 13.7779 10.6666 13.7779C11.037 13.7779 11.3941 13.8345 11.7299 13.9396C12.2307 12.3021 13.7541 11.1112 15.5555 11.1112C17.7647 11.1112 19.5555 12.9021 19.5555 15.1112C19.5555 15.3197 19.5396 15.5245 19.5088 15.7244C19.7999 15.6153 20.1152 15.5556 20.4444 15.5556C21.9172 15.5556 23.1111 16.7496 23.1111 18.2223C23.1111 19.6951 21.9172 20.889 20.4444 20.889H10.6666Z" fill="black" fill-opacity="0.02"/>
<path fill-rule="evenodd" clip-rule="evenodd" d="M10.6666 21.1111C8.70296 21.1111 7.11108 19.5193 7.11108 17.5556C7.11108 15.5919 8.70296 14 10.6666 14C11.037 14 11.3941 14.0567 11.7299 14.1617C12.2307 12.5243 13.7541 11.3334 15.5555 11.3334C17.7647 11.3334 19.5555 13.1242 19.5555 15.3334C19.5555 15.5419 19.5396 15.7467 19.5088 15.9466C19.7999 15.8375 20.1152 15.7778 20.4444 15.7778C21.9172 15.7778 23.1111 16.9717 23.1111 18.4445C23.1111 19.9172 21.9172 21.1111 20.4444 21.1111H10.6666Z" fill="black" fill-opacity="0.02"/>
<path fill-rule="evenodd" clip-rule="evenodd" d="M10.6666 21.3333C8.70296 21.3333 7.11108 19.7414 7.11108 17.7778C7.11108 15.8141 8.70296 14.2222 10.6666 14.2222C11.037 14.2222 11.3941 14.2788 11.7299 14.3839C12.2307 12.7464 13.7541 11.5555 15.5555 11.5555C17.7647 11.5555 19.5555 13.3464 19.5555 15.5555C19.5555 15.764 19.5396 15.9688 19.5088 16.1687C19.7999 16.0596 20.1152 16 20.4444 16C21.9172 16 23.1111 17.1939 23.1111 18.6667C23.1111 20.1394 21.9172 21.3333 20.4444 21.3333H10.6666Z" fill="black" fill-opacity="0.02"/>
<path d="M19.7777 14.6667C19.7777 12.3348 17.8874 10.4445 15.5555 10.4445C13.7603 10.4445 12.185 11.5748 11.5862 13.2239C11.288 13.1493 10.9798 13.1111 10.6666 13.1111C8.58022 13.1111 6.88885 14.8025 6.88885 16.8889C6.88885 18.9753 8.58022 20.6667 10.6666 20.6667H20.4444C22.0399 20.6667 23.3333 19.3733 23.3333 17.7778C23.3333 16.1823 22.0399 14.8889 20.4444 14.8889C20.2139 14.8889 19.9869 14.916 19.7671 14.9688C19.7742 14.8686 19.7777 14.7679 19.7777 14.6667Z" fill="black" fill-opacity="0.02"/>
<path fill-rule="evenodd" clip-rule="evenodd" d="M10.6666 20.4445C8.70296 20.4445 7.11108 18.8526 7.11108 16.889C7.11108 14.9253 8.70296 13.3334 10.6666 13.3334C11.037 13.3334 11.3941 13.39 11.7299 13.4951C12.2307 11.8576 13.7541 10.6667 15.5555 10.6667C17.7647 10.6667 19.5555 12.4576 19.5555 14.6667C19.5555 14.8753 19.5396 15.08 19.5088 15.2799C19.7999 15.1708 20.1152 15.1112 20.4444 15.1112C21.9172 15.1112 23.1111 16.3051 23.1111 17.7779C23.1111 19.2506 21.9172 20.4445 20.4444 20.4445H10.6666Z" fill="white"/>
<path opacity="0.24" fill-rule="evenodd" clip-rule="evenodd" d="M10.6666 20.4445C12.6303 20.4445 14.2222 18.8526 14.2222 16.8889C14.2222 14.9253 12.6303 13.3334 10.6666 13.3334C8.70296 13.3334 7.11108 14.9253 7.11108 16.8889C7.11108 18.8526 8.70296 20.4445 10.6666 20.4445Z" fill="url(#paint1_radial)"/>
<path opacity="0.24" fill-rule="evenodd" clip-rule="evenodd" d="M20.4444 20.4445C21.9172 20.4445 23.1111 19.2506 23.1111 17.7779C23.1111 16.3051 21.9172 15.1112 20.4444 15.1112C18.9717 15.1112 17.7778 16.3051 17.7778 17.7779C17.7778 19.2506 18.9717 20.4445 20.4444 20.4445Z" fill="url(#paint2_radial)"/>
<path fill-rule="evenodd" clip-rule="evenodd" d="M15.5555 18.6667C17.7647 18.6667 19.5555 16.8759 19.5555 14.6667C19.5555 12.4576 17.7647 10.6667 15.5555 10.6667C13.3464 10.6667 11.5555 12.4576 11.5555 14.6667C11.5555 16.8759 13.3464 18.6667 15.5555 18.6667Z" fill="white"/>
<path d="M9.38707 21.7353L8.05373 24.8516C7.9089 25.1901 8.06591 25.5819 8.40441 25.7268C8.74292 25.8716 9.13474 25.7146 9.27958 25.3761L10.6129 22.2598C10.7577 21.9213 10.6007 21.5294 10.2622 21.3846C9.92372 21.2398 9.5319 21.3968 9.38707 21.7353Z" fill="#B2DEF7"/>
<path d="M12.9426 21.7353L11.6093 24.8516C11.4644 25.1901 11.6214 25.5819 11.96 25.7268C12.2985 25.8716 12.6903 25.7146 12.8351 25.3761L14.1685 22.2598C14.3133 21.9213 14.1563 21.5294 13.8178 21.3846C13.4793 21.2398 13.0874 21.3968 12.9426 21.7353Z" fill="#B2DEF7"/>
<path d="M16.4982 21.7353L15.1649 24.8516C15.02 25.1901 15.1771 25.5819 15.5156 25.7268C15.8541 25.8716 16.2459 25.7146 16.3907 25.3761L17.7241 22.2598C17.8689 21.9213 17.7119 21.5294 17.3734 21.3846C17.0349 21.2398 16.643 21.3968 16.4982 21.7353Z" fill="#B2DEF7"/>
<path d="M20.0538 21.7353L18.7204 24.8516C18.5756 25.1901 18.7326 25.5819 19.0711 25.7268C19.4096 25.8716 19.8014 25.7146 19.9463 25.3761L21.2796 22.2598C21.4244 21.9213 21.2674 21.5294 20.9289 21.3846C20.5904 21.2398 20.1986 21.3968 20.0538 21.7353Z" fill="#B2DEF7"/>
<defs>
<linearGradient id="paint0_linear" x1="20.6943" y1="6.44053" x2="15.7975" y2="11.2742" gradientUnits="userSpaceOnUse">
<stop stop-color="#FFCD44"/>
<stop offset="1" stop-color="#FFB403"/>
</linearGradient>
<radialGradient id="paint1_radial" cx="0" cy="0" r="1" gradientUnits="userSpaceOnUse" gradientTransform="translate(12.993 14.3473) rotate(-90) scale(3.55555)">
<stop stop-color="#777AB4"/>
<stop offset="1" stop-color="#777AB4" stop-opacity="0.01"/>
</radialGradient>
<radialGradient id="paint2_radial" cx="0" cy="0" r="1" gradientUnits="userSpaceOnUse" gradientTransform="translate(18.2135 14.7627) rotate(-90) scale(3.39138)">
<stop stop-color="#777AB4"/>
<stop offset="1" stop-color="#777AB4" stop-opacity="0.01"/>
</radialGradient>
</defs>
</svg>
