<svg width="32" height="32" viewBox="0 0 32 32" fill="none" xmlns="http://www.w3.org/2000/svg">
<path fill-rule="evenodd" clip-rule="evenodd" d="M16 32C24.8366 32 32 24.8366 32 16C32 7.16344 24.8366 0 16 0C7.16344 0 0 7.16344 0 16C0 24.8366 7.16344 32 16 32Z" fill="#3C80E4"/>
<path fill-rule="evenodd" clip-rule="evenodd" d="M12.0073 6.54822C13.5046 7.17994 14.5556 8.66169 14.5556 10.3889C14.5556 12.6901 12.6901 14.5556 10.3889 14.5556C8.66169 14.5556 7.17994 13.5046 6.54822 12.0073C7.0458 12.2173 7.59268 12.3333 8.16666 12.3333C10.4679 12.3333 12.3333 10.4679 12.3333 8.16666C12.3333 7.59268 12.2173 7.0458 12.0073 6.54822V6.54822Z" fill="url(#paint0_linear)"/>
<path d="M15.8889 22.7822V26.1067C15.8889 26.4135 16.1376 26.6622 16.4444 26.6622C16.7512 26.6622 17 26.4135 17 26.1067V22.7822C17 22.4754 16.7512 22.2267 16.4444 22.2267C16.1376 22.2267 15.8889 22.4754 15.8889 22.7822Z" fill="white"/>
<path d="M15.2827 23.1323L18.1617 24.7945C18.8032 25.1649 18.2477 26.1271 17.6062 25.7568L14.7271 24.0946C14.0856 23.7242 14.6412 22.7619 15.2827 23.1323Z" fill="white"/>
<path d="M18.1617 24.0946L15.2827 25.7568C14.6412 26.1271 14.0856 25.1649 14.7271 24.7945L17.6062 23.1323C18.2477 22.7619 18.8032 23.7242 18.1617 24.0946Z" fill="white"/>
<path d="M21.2222 21.0045V24.329C21.2222 24.6358 21.471 24.8845 21.7778 24.8845C22.0846 24.8845 22.3333 24.6358 22.3333 24.329V21.0045C22.3333 20.6977 22.0846 20.449 21.7778 20.449C21.471 20.449 21.2222 20.6977 21.2222 21.0045Z" fill="white"/>
<path d="M20.616 21.3545L23.495 23.0167C24.1365 23.3871 23.581 24.3493 22.9395 23.9789L20.0604 22.3167C19.4189 21.9463 19.9745 20.9841 20.616 21.3545Z" fill="white"/>
<path d="M23.495 22.3167L20.616 23.9789C19.9745 24.3493 19.4189 23.3871 20.0604 23.0167L22.9395 21.3545C23.581 20.9841 24.1365 21.9463 23.495 22.3167Z" fill="white"/>
<path d="M10.5555 21.0045V24.329C10.5555 24.6358 10.8043 24.8845 11.1111 24.8845C11.4179 24.8845 11.6667 24.6358 11.6667 24.329V21.0045C11.6667 20.6977 11.4179 20.449 11.1111 20.449C10.8043 20.449 10.5555 20.6977 10.5555 21.0045Z" fill="white"/>
<path d="M9.94937 21.3545L12.8284 23.0167C13.4699 23.3871 12.9144 24.3493 12.2729 23.9789L9.39381 22.3167C8.75231 21.9463 9.30787 20.9841 9.94937 21.3545Z" fill="white"/>
<path d="M12.8284 22.3167L9.94937 23.9789C9.30787 24.3493 8.75231 23.3871 9.39381 23.0167L12.2729 21.3545C12.9144 20.9841 13.4699 21.9463 12.8284 22.3167Z" fill="white"/>
<path fill-rule="evenodd" clip-rule="evenodd" d="M12.4444 20.0001C10.4807 20.0001 8.88885 18.4082 8.88885 16.4445C8.88885 14.4808 10.4807 12.889 12.4444 12.889C12.8148 12.889 13.1719 12.9456 13.5076 13.0506C14.0085 11.4132 15.5318 10.2223 17.3333 10.2223C19.5424 10.2223 21.3333 12.0132 21.3333 14.2223C21.3333 14.4308 21.3173 14.6356 21.2866 14.8355C21.5777 14.7264 21.893 14.6667 22.2222 14.6667C23.6949 14.6667 24.8889 15.8606 24.8889 17.3334C24.8889 18.8062 23.6949 20.0001 22.2222 20.0001H12.4444Z" fill="black" fill-opacity="0.02"/>
<path fill-rule="evenodd" clip-rule="evenodd" d="M12.4444 20.2222C10.4807 20.2222 8.88885 18.6304 8.88885 16.6667C8.88885 14.703 10.4807 13.1111 12.4444 13.1111C12.8148 13.1111 13.1719 13.1678 13.5076 13.2728C14.0085 11.6353 15.5318 10.4445 17.3333 10.4445C19.5424 10.4445 21.3333 12.2353 21.3333 14.4445C21.3333 14.653 21.3173 14.8577 21.2866 15.0576C21.5777 14.9486 21.893 14.8889 22.2222 14.8889C23.6949 14.8889 24.8889 16.0828 24.8889 17.5556C24.8889 19.0283 23.6949 20.2222 22.2222 20.2222H12.4444Z" fill="black" fill-opacity="0.02"/>
<path fill-rule="evenodd" clip-rule="evenodd" d="M12.4444 20.4445C10.4807 20.4445 8.88885 18.8526 8.88885 16.889C8.88885 14.9253 10.4807 13.3334 12.4444 13.3334C12.8148 13.3334 13.1719 13.39 13.5076 13.4951C14.0085 11.8576 15.5318 10.6667 17.3333 10.6667C19.5424 10.6667 21.3333 12.4576 21.3333 14.6667C21.3333 14.8753 21.3173 15.08 21.2866 15.2799C21.5777 15.1708 21.893 15.1112 22.2222 15.1112C23.6949 15.1112 24.8889 16.3051 24.8889 17.7779C24.8889 19.2506 23.6949 20.4445 22.2222 20.4445H12.4444Z" fill="black" fill-opacity="0.02"/>
<path d="M21.5555 13.7778C21.5555 11.4459 19.6652 9.55554 17.3333 9.55554C15.5381 9.55554 13.9628 10.6859 13.364 12.335C13.0658 12.2604 12.7576 12.2222 12.4444 12.2222C10.358 12.2222 8.66663 13.9136 8.66663 16C8.66663 18.0864 10.358 19.7778 12.4444 19.7778H22.2222C23.8177 19.7778 25.1111 18.4844 25.1111 16.8889C25.1111 15.2934 23.8177 14 22.2222 14C21.9917 14 21.7647 14.027 21.5449 14.0799C21.552 13.9797 21.5555 13.8789 21.5555 13.7778Z" fill="black" fill-opacity="0.02"/>
<path fill-rule="evenodd" clip-rule="evenodd" d="M12.4444 19.5556C10.4807 19.5556 8.88885 17.9637 8.88885 16.0001C8.88885 14.0364 10.4807 12.4445 12.4444 12.4445C12.8148 12.4445 13.1719 12.5011 13.5076 12.6062C14.0085 10.9687 15.5318 9.77783 17.3333 9.77783C19.5424 9.77783 21.3333 11.5687 21.3333 13.7778C21.3333 13.9863 21.3173 14.1911 21.2866 14.391C21.5777 14.2819 21.893 14.2223 22.2222 14.2223C23.6949 14.2223 24.8889 15.4162 24.8889 16.8889C24.8889 18.3617 23.6949 19.5556 22.2222 19.5556H12.4444Z" fill="white"/>
<path opacity="0.24" fill-rule="evenodd" clip-rule="evenodd" d="M12.4444 19.5556C14.4081 19.5556 16 17.9637 16 16C16 14.0363 14.4081 12.4445 12.4444 12.4445C10.4807 12.4445 8.88885 14.0363 8.88885 16C8.88885 17.9637 10.4807 19.5556 12.4444 19.5556Z" fill="url(#paint1_radial)"/>
<path opacity="0.24" fill-rule="evenodd" clip-rule="evenodd" d="M22.2222 19.5556C23.695 19.5556 24.8889 18.3617 24.8889 16.889C24.8889 15.4162 23.695 14.2223 22.2222 14.2223C20.7494 14.2223 19.5555 15.4162 19.5555 16.889C19.5555 18.3617 20.7494 19.5556 22.2222 19.5556Z" fill="url(#paint2_radial)"/>
<path fill-rule="evenodd" clip-rule="evenodd" d="M17.3333 17.7778C19.5425 17.7778 21.3333 15.987 21.3333 13.7778C21.3333 11.5687 19.5425 9.77783 17.3333 9.77783C15.1242 9.77783 13.3333 11.5687 13.3333 13.7778C13.3333 15.987 15.1242 17.7778 17.3333 17.7778Z" fill="white"/>
<defs>
<linearGradient id="paint0_linear" x1="9.34953" y1="11.7104" x2="11.6666" y2="14.1151" gradientUnits="userSpaceOnUse">
<stop stop-color="#FFCD44"/>
<stop offset="1" stop-color="#FFB403"/>
</linearGradient>
<radialGradient id="paint1_radial" cx="0" cy="0" r="1" gradientUnits="userSpaceOnUse" gradientTransform="translate(14.7708 13.4583) rotate(-90) scale(3.55555)">
<stop stop-color="#777AB4"/>
<stop offset="1" stop-color="#777AB4" stop-opacity="0.01"/>
</radialGradient>
<radialGradient id="paint2_radial" cx="0" cy="0" r="1" gradientUnits="userSpaceOnUse" gradientTransform="translate(19.9913 13.8738) rotate(-90) scale(3.39138)">
<stop stop-color="#777AB4"/>
<stop offset="1" stop-color="#777AB4" stop-opacity="0.01"/>
</radialGradient>
</defs>
</svg>
