<svg width="32" height="32" viewBox="0 0 32 32" fill="none" xmlns="http://www.w3.org/2000/svg">
<path fill-rule="evenodd" clip-rule="evenodd" d="M16 32C24.8366 32 32 24.8366 32 16C32 7.16344 24.8366 0 16 0C7.16344 0 0 7.16344 0 16C0 24.8366 7.16344 32 16 32Z" fill="#3C80E4"/>
<path fill-rule="evenodd" clip-rule="evenodd" d="M12.0073 8.32605C13.5046 8.95777 14.5556 10.4395 14.5556 12.1667C14.5556 14.4679 12.6901 16.3334 10.3889 16.3334C8.66169 16.3334 7.17994 15.2825 6.54822 13.7852C7.0458 13.9951 7.59268 14.1112 8.16666 14.1112C10.4679 14.1112 12.3333 12.2457 12.3333 9.9445C12.3333 9.37051 12.2173 8.82363 12.0073 8.32605V8.32605Z" fill="url(#paint0_linear)"/>
<path fill-rule="evenodd" clip-rule="evenodd" d="M12.4444 21.7778C10.4807 21.7778 8.88885 20.1859 8.88885 18.2222C8.88885 16.2585 10.4807 14.6667 12.4444 14.6667C12.8148 14.6667 13.1719 14.7233 13.5076 14.8284C14.0085 13.1909 15.5318 12 17.3333 12C19.5424 12 21.3333 13.7909 21.3333 16C21.3333 16.2085 21.3173 16.4133 21.2866 16.6132C21.5777 16.5041 21.893 16.4444 22.2222 16.4444C23.6949 16.4444 24.8889 17.6383 24.8889 19.1111C24.8889 20.5839 23.6949 21.7778 22.2222 21.7778H12.4444Z" fill="black" fill-opacity="0.02"/>
<path fill-rule="evenodd" clip-rule="evenodd" d="M12.4444 22.0001C10.4807 22.0001 8.88885 20.4082 8.88885 18.4445C8.88885 16.4808 10.4807 14.889 12.4444 14.889C12.8148 14.889 13.1719 14.9456 13.5076 15.0506C14.0085 13.4132 15.5318 12.2223 17.3333 12.2223C19.5424 12.2223 21.3333 14.0132 21.3333 16.2223C21.3333 16.4308 21.3173 16.6356 21.2866 16.8355C21.5777 16.7264 21.893 16.6667 22.2222 16.6667C23.6949 16.6667 24.8889 17.8606 24.8889 19.3334C24.8889 20.8062 23.6949 22.0001 22.2222 22.0001H12.4444Z" fill="black" fill-opacity="0.02"/>
<path fill-rule="evenodd" clip-rule="evenodd" d="M12.4444 22.2222C10.4807 22.2222 8.88885 20.6304 8.88885 18.6667C8.88885 16.703 10.4807 15.1111 12.4444 15.1111C12.8148 15.1111 13.1719 15.1678 13.5076 15.2728C14.0085 13.6353 15.5318 12.4445 17.3333 12.4445C19.5424 12.4445 21.3333 14.2353 21.3333 16.4445C21.3333 16.653 21.3173 16.8577 21.2866 17.0576C21.5777 16.9486 21.893 16.8889 22.2222 16.8889C23.6949 16.8889 24.8889 18.0828 24.8889 19.5556C24.8889 21.0283 23.6949 22.2222 22.2222 22.2222H12.4444Z" fill="black" fill-opacity="0.02"/>
<path d="M21.5555 15.5556C21.5555 13.2237 19.6652 11.3334 17.3333 11.3334C15.5381 11.3334 13.9628 12.4637 13.364 14.1128C13.0658 14.0382 12.7576 14 12.4444 14C10.358 14 8.66663 15.6914 8.66663 17.7778C8.66663 19.8642 10.358 21.5556 12.4444 21.5556H22.2222C23.8177 21.5556 25.1111 20.2622 25.1111 18.6667C25.1111 17.0712 23.8177 15.7778 22.2222 15.7778C21.9917 15.7778 21.7647 15.8049 21.5449 15.8577C21.552 15.7575 21.5555 15.6568 21.5555 15.5556Z" fill="black" fill-opacity="0.02"/>
<path fill-rule="evenodd" clip-rule="evenodd" d="M12.4444 21.3333C10.4807 21.3333 8.88885 19.7414 8.88885 17.7778C8.88885 15.8141 10.4807 14.2222 12.4444 14.2222C12.8148 14.2222 13.1719 14.2788 13.5076 14.3839C14.0085 12.7464 15.5318 11.5555 17.3333 11.5555C19.5424 11.5555 21.3333 13.3464 21.3333 15.5555C21.3333 15.764 21.3173 15.9688 21.2866 16.1687C21.5777 16.0596 21.893 16 22.2222 16C23.6949 16 24.8889 17.1939 24.8889 18.6667C24.8889 20.1394 23.6949 21.3333 22.2222 21.3333H12.4444Z" fill="white"/>
<path opacity="0.24" fill-rule="evenodd" clip-rule="evenodd" d="M12.4444 21.3334C14.4081 21.3334 16 19.7415 16 17.7778C16 15.8142 14.4081 14.2223 12.4444 14.2223C10.4807 14.2223 8.88885 15.8142 8.88885 17.7778C8.88885 19.7415 10.4807 21.3334 12.4444 21.3334Z" fill="url(#paint1_radial)"/>
<path opacity="0.24" fill-rule="evenodd" clip-rule="evenodd" d="M22.2222 21.3333C23.695 21.3333 24.8889 20.1394 24.8889 18.6667C24.8889 17.1939 23.695 16 22.2222 16C20.7494 16 19.5555 17.1939 19.5555 18.6667C19.5555 20.1394 20.7494 21.3333 22.2222 21.3333Z" fill="url(#paint2_radial)"/>
<path fill-rule="evenodd" clip-rule="evenodd" d="M17.3333 19.5555C19.5425 19.5555 21.3333 17.7647 21.3333 15.5555C21.3333 13.3464 19.5425 11.5555 17.3333 11.5555C15.1242 11.5555 13.3333 13.3464 13.3333 15.5555C13.3333 17.7647 15.1242 19.5555 17.3333 19.5555Z" fill="white"/>
<defs>
<linearGradient id="paint0_linear" x1="9.34953" y1="13.4882" x2="11.6666" y2="15.8929" gradientUnits="userSpaceOnUse">
<stop stop-color="#FFCD44"/>
<stop offset="1" stop-color="#FFB403"/>
</linearGradient>
<radialGradient id="paint1_radial" cx="0" cy="0" r="1" gradientUnits="userSpaceOnUse" gradientTransform="translate(14.7708 15.2362) rotate(-90) scale(3.55555)">
<stop stop-color="#777AB4"/>
<stop offset="1" stop-color="#777AB4" stop-opacity="0.01"/>
</radialGradient>
<radialGradient id="paint2_radial" cx="0" cy="0" r="1" gradientUnits="userSpaceOnUse" gradientTransform="translate(19.9913 15.6515) rotate(-90) scale(3.39138)">
<stop stop-color="#777AB4"/>
<stop offset="1" stop-color="#777AB4" stop-opacity="0.01"/>
</radialGradient>
</defs>
</svg>
