<svg width="32" height="32" viewBox="0 0 32 32" fill="none" xmlns="http://www.w3.org/2000/svg">
<path fill-rule="evenodd" clip-rule="evenodd" d="M16 32C24.8366 32 32 24.8366 32 16C32 7.16344 24.8366 0 16 0C7.16344 0 0 7.16344 0 16C0 24.8366 7.16344 32 16 32Z" fill="#3C80E4"/>
<path d="M9.66663 7.67103V10.9955C9.66663 11.3023 9.91536 11.551 10.2222 11.551C10.529 11.551 10.7777 11.3023 10.7777 10.9955V7.67103C10.7777 7.36421 10.529 7.11548 10.2222 7.11548C9.91536 7.11548 9.66663 7.36421 9.66663 7.67103Z" fill="white"/>
<path d="M9.06045 8.02109L11.9395 9.68332C12.581 10.0537 12.0254 11.0159 11.3839 10.6456L8.50489 8.98334C7.86339 8.61297 8.41895 7.65072 9.06045 8.02109Z" fill="white"/>
<path d="M11.9395 8.98334L9.06045 10.6456C8.41895 11.0159 7.86339 10.0537 8.50489 9.68332L11.3839 8.02109C12.0254 7.65072 12.581 8.61297 11.9395 8.98334Z" fill="white"/>
<path d="M21.2222 7.67103V10.9955C21.2222 11.3023 21.471 11.551 21.7778 11.551C22.0846 11.551 22.3333 11.3023 22.3333 10.9955V7.67103C22.3333 7.36421 22.0846 7.11548 21.7778 7.11548C21.471 7.11548 21.2222 7.36421 21.2222 7.67103Z" fill="white"/>
<path d="M20.616 8.02109L23.495 9.68332C24.1365 10.0537 23.581 11.0159 22.9395 10.6456L20.0604 8.98334C19.4189 8.61297 19.9745 7.65072 20.616 8.02109Z" fill="white"/>
<path d="M23.495 8.98334L20.616 10.6456C19.9745 11.0159 19.4189 10.0537 20.0604 9.68332L22.9395 8.02109C23.581 7.65072 24.1365 8.61297 23.495 8.98334Z" fill="white"/>
<path d="M21.2222 21.0043V24.3287C21.2222 24.6356 21.471 24.8843 21.7778 24.8843C22.0846 24.8843 22.3333 24.6356 22.3333 24.3287V21.0043C22.3333 20.6975 22.0846 20.4487 21.7778 20.4487C21.471 20.4487 21.2222 20.6975 21.2222 21.0043Z" fill="white"/>
<path d="M20.616 21.3543L23.495 23.0166C24.1365 23.3869 23.581 24.3492 22.9395 23.9788L20.0604 22.3166C19.4189 21.9462 19.9745 20.984 20.616 21.3543Z" fill="white"/>
<path d="M23.495 22.3166L20.616 23.9788C19.9745 24.3492 19.4189 23.3869 20.0604 23.0166L22.9395 21.3543C23.581 20.984 24.1365 21.9462 23.495 22.3166Z" fill="white"/>
<path d="M10.4444 16.4444H15.1253C16.598 16.4444 17.792 15.2505 17.792 13.7777C17.792 12.305 16.598 11.1111 15.1253 11.1111C14.6302 11.1111 14.1535 11.2468 13.7391 11.4993C13.4247 11.6909 13.3251 12.1011 13.5167 12.4155C13.7083 12.73 14.1185 12.8295 14.4329 12.6379C14.6398 12.5119 14.8767 12.4444 15.1253 12.4444C15.8617 12.4444 16.4586 13.0414 16.4586 13.7777C16.4586 14.5141 15.8617 15.1111 15.1253 15.1111H10.4444C10.0762 15.1111 9.77777 15.4096 9.77777 15.7777C9.77777 16.1459 10.0762 16.4444 10.4444 16.4444Z" fill="#B2DEF7"/>
<path d="M8.66667 19.1109H15.5567C16.0476 19.1109 16.4456 19.5089 16.4456 19.9998C16.4456 20.4907 16.0476 20.8887 15.5567 20.8887C15.3908 20.8887 15.2331 20.8438 15.0953 20.7598C14.7809 20.5682 14.3707 20.6678 14.1791 20.9822C13.9875 21.2966 14.0871 21.7068 14.4015 21.8984C14.7468 22.1089 15.1443 22.222 15.5567 22.222C16.784 22.222 17.7789 21.2271 17.7789 19.9998C17.7789 18.7725 16.784 17.7776 15.5567 17.7776H8.66667C8.29848 17.7776 8 18.0761 8 18.4443C8 18.8124 8.29848 19.1109 8.66667 19.1109Z" fill="#B2DEF7"/>
<path d="M18.4444 17.7777H20.0011C21.2284 17.7777 22.2234 16.7828 22.2234 15.5555C22.2234 14.3282 21.2284 13.3333 20.0011 13.3333C19.5887 13.3333 19.1913 13.4464 18.8459 13.6569C18.5315 13.8485 18.4319 14.2587 18.6235 14.5731C18.8151 14.8875 19.2253 14.987 19.5397 14.7955C19.6775 14.7115 19.8352 14.6666 20.0011 14.6666C20.4921 14.6666 20.89 15.0646 20.89 15.5555C20.89 16.0464 20.4921 16.4444 20.0011 16.4444H18.4444C18.0762 16.4444 17.7778 16.7428 17.7778 17.111C17.7778 17.4792 18.0762 17.7777 18.4444 17.7777Z" fill="#B2DEF7"/>
</svg>
