<svg width="32" height="32" viewBox="0 0 32 32" fill="none" xmlns="http://www.w3.org/2000/svg">
<path fill-rule="evenodd" clip-rule="evenodd" d="M16 32C24.8366 32 32 24.8366 32 16C32 7.16344 24.8366 0 16 0C7.16344 0 0 7.16344 0 16C0 24.8366 7.16344 32 16 32Z" fill="#3C80E4"/>
<path fill-rule="evenodd" clip-rule="evenodd" d="M16 17.3332C16.7363 17.3332 17.3333 16.7362 17.3333 15.9998C17.3333 15.2635 16.7363 14.6665 16 14.6665C15.2636 14.6665 14.6666 15.2635 14.6666 15.9998C14.6666 16.7362 15.2636 17.3332 16 17.3332Z" fill="white"/>
<path fill-rule="evenodd" clip-rule="evenodd" d="M18.8889 14.2222C19.5025 14.2222 20 13.7248 20 13.1111C20 12.4975 19.5025 12 18.8889 12C18.2752 12 17.7778 12.4975 17.7778 13.1111C17.7778 13.7248 18.2752 14.2222 18.8889 14.2222Z" fill="white"/>
<path fill-rule="evenodd" clip-rule="evenodd" d="M13.1111 14.2222C13.7248 14.2222 14.2222 13.7248 14.2222 13.1111C14.2222 12.4975 13.7248 12 13.1111 12C12.4975 12 12 12.4975 12 13.1111C12 13.7248 12.4975 14.2222 13.1111 14.2222Z" fill="white"/>
<path fill-rule="evenodd" clip-rule="evenodd" d="M10.6667 16.8889C11.1576 16.8889 11.5555 16.4909 11.5555 16C11.5555 15.5091 11.1576 15.1111 10.6667 15.1111C10.1757 15.1111 9.77777 15.5091 9.77777 16C9.77777 16.4909 10.1757 16.8889 10.6667 16.8889Z" fill="white"/>
<path fill-rule="evenodd" clip-rule="evenodd" d="M7.77775 14.2222C8.14594 14.2222 8.44442 13.9238 8.44442 13.5556C8.44442 13.1874 8.14594 12.8889 7.77775 12.8889C7.40956 12.8889 7.11108 13.1874 7.11108 13.5556C7.11108 13.9238 7.40956 14.2222 7.77775 14.2222Z" fill="white"/>
<path fill-rule="evenodd" clip-rule="evenodd" d="M7.77775 19.5555C8.14594 19.5555 8.44442 19.257 8.44442 18.8888C8.44442 18.5206 8.14594 18.2222 7.77775 18.2222C7.40956 18.2222 7.11108 18.5206 7.11108 18.8888C7.11108 19.257 7.40956 19.5555 7.77775 19.5555Z" fill="white"/>
<path fill-rule="evenodd" clip-rule="evenodd" d="M23.7778 14.2222C24.1459 14.2222 24.4444 13.9238 24.4444 13.5556C24.4444 13.1874 24.1459 12.8889 23.7778 12.8889C23.4096 12.8889 23.1111 13.1874 23.1111 13.5556C23.1111 13.9238 23.4096 14.2222 23.7778 14.2222Z" fill="white"/>
<path fill-rule="evenodd" clip-rule="evenodd" d="M23.7778 19.5555C24.1459 19.5555 24.4444 19.257 24.4444 18.8888C24.4444 18.5206 24.1459 18.2222 23.7778 18.2222C23.4096 18.2222 23.1111 18.5206 23.1111 18.8888C23.1111 19.257 23.4096 19.5555 23.7778 19.5555Z" fill="white"/>
<path fill-rule="evenodd" clip-rule="evenodd" d="M21.3333 16.8889C21.8242 16.8889 22.2222 16.4909 22.2222 16C22.2222 15.5091 21.8242 15.1111 21.3333 15.1111C20.8424 15.1111 20.4444 15.5091 20.4444 16C20.4444 16.4909 20.8424 16.8889 21.3333 16.8889Z" fill="white"/>
<path fill-rule="evenodd" clip-rule="evenodd" d="M16 11.5554C16.4909 11.5554 16.8889 11.1574 16.8889 10.6665C16.8889 10.1756 16.4909 9.77759 16 9.77759C15.5091 9.77759 15.1111 10.1756 15.1111 10.6665C15.1111 11.1574 15.5091 11.5554 16 11.5554Z" fill="white"/>
<path fill-rule="evenodd" clip-rule="evenodd" d="M21.3333 11.5554C21.8242 11.5554 22.2222 11.1574 22.2222 10.6665C22.2222 10.1756 21.8242 9.77759 21.3333 9.77759C20.8424 9.77759 20.4444 10.1756 20.4444 10.6665C20.4444 11.1574 20.8424 11.5554 21.3333 11.5554Z" fill="white"/>
<path fill-rule="evenodd" clip-rule="evenodd" d="M10.6667 11.5554C11.1576 11.5554 11.5555 11.1574 11.5555 10.6665C11.5555 10.1756 11.1576 9.77759 10.6667 9.77759C10.1757 9.77759 9.77777 10.1756 9.77777 10.6665C9.77777 11.1574 10.1757 11.5554 10.6667 11.5554Z" fill="white"/>
<path fill-rule="evenodd" clip-rule="evenodd" d="M18.4444 8.44442C18.8126 8.44442 19.1111 8.14594 19.1111 7.77775C19.1111 7.40956 18.8126 7.11108 18.4444 7.11108C18.0762 7.11108 17.7778 7.40956 17.7778 7.77775C17.7778 8.14594 18.0762 8.44442 18.4444 8.44442Z" fill="white"/>
<path fill-rule="evenodd" clip-rule="evenodd" d="M13.5555 8.44442C13.9237 8.44442 14.2222 8.14594 14.2222 7.77775C14.2222 7.40956 13.9237 7.11108 13.5555 7.11108C13.1873 7.11108 12.8889 7.40956 12.8889 7.77775C12.8889 8.14594 13.1873 8.44442 13.5555 8.44442Z" fill="white"/>
<path fill-rule="evenodd" clip-rule="evenodd" d="M18.4444 24.4444C18.8126 24.4444 19.1111 24.1459 19.1111 23.7778C19.1111 23.4096 18.8126 23.1111 18.4444 23.1111C18.0762 23.1111 17.7778 23.4096 17.7778 23.7778C17.7778 24.1459 18.0762 24.4444 18.4444 24.4444Z" fill="white"/>
<path fill-rule="evenodd" clip-rule="evenodd" d="M13.5555 24.4444C13.9237 24.4444 14.2222 24.1459 14.2222 23.7778C14.2222 23.4096 13.9237 23.1111 13.5555 23.1111C13.1873 23.1111 12.8889 23.4096 12.8889 23.7778C12.8889 24.1459 13.1873 24.4444 13.5555 24.4444Z" fill="white"/>
<path fill-rule="evenodd" clip-rule="evenodd" d="M21.3333 22.2221C21.8242 22.2221 22.2222 21.8241 22.2222 21.3332C22.2222 20.8423 21.8242 20.4443 21.3333 20.4443C20.8424 20.4443 20.4444 20.8423 20.4444 21.3332C20.4444 21.8241 20.8424 22.2221 21.3333 22.2221Z" fill="white"/>
<path fill-rule="evenodd" clip-rule="evenodd" d="M10.6667 22.2221C11.1576 22.2221 11.5555 21.8241 11.5555 21.3332C11.5555 20.8423 11.1576 20.4443 10.6667 20.4443C10.1757 20.4443 9.77777 20.8423 9.77777 21.3332C9.77777 21.8241 10.1757 22.2221 10.6667 22.2221Z" fill="white"/>
<path fill-rule="evenodd" clip-rule="evenodd" d="M18.8889 19.9998C19.5025 19.9998 20 19.5023 20 18.8887C20 18.275 19.5025 17.7776 18.8889 17.7776C18.2752 17.7776 17.7778 18.275 17.7778 18.8887C17.7778 19.5023 18.2752 19.9998 18.8889 19.9998Z" fill="white"/>
<path fill-rule="evenodd" clip-rule="evenodd" d="M13.1111 19.9998C13.7248 19.9998 14.2222 19.5023 14.2222 18.8887C14.2222 18.275 13.7248 17.7776 13.1111 17.7776C12.4975 17.7776 12 18.275 12 18.8887C12 19.5023 12.4975 19.9998 13.1111 19.9998Z" fill="white"/>
<path fill-rule="evenodd" clip-rule="evenodd" d="M16 22.2221C16.4909 22.2221 16.8889 21.8241 16.8889 21.3332C16.8889 20.8423 16.4909 20.4443 16 20.4443C15.5091 20.4443 15.1111 20.8423 15.1111 21.3332C15.1111 21.8241 15.5091 22.2221 16 22.2221Z" fill="white"/>
</svg>
