<svg width="32" height="32" viewBox="0 0 32 32" fill="none" xmlns="http://www.w3.org/2000/svg">
<path fill-rule="evenodd" clip-rule="evenodd" d="M16 32C24.8366 32 32 24.8366 32 16C32 7.16344 24.8366 0 16 0C7.16344 0 0 7.16344 0 16C0 24.8366 7.16344 32 16 32Z" fill="#3C80E4"/>
<path d="M16.6667 15.5555H17.792C19.2647 15.5555 20.4586 14.3616 20.4586 12.8888C20.4586 11.4161 19.2647 10.2222 17.792 10.2222C17.2969 10.2222 16.8202 10.3579 16.4058 10.6104C16.0914 10.802 15.9918 11.2122 16.1834 11.5266C16.375 11.841 16.7852 11.9406 17.0996 11.749C17.3064 11.623 17.5434 11.5555 17.792 11.5555C18.5283 11.5555 19.1253 12.1525 19.1253 12.8888C19.1253 13.6252 18.5283 14.2222 17.792 14.2222H16.6667C16.2985 14.2222 16 14.5206 16 14.8888C16 15.257 16.2985 15.5555 16.6667 15.5555Z" fill="white"/>
<path fill-rule="evenodd" clip-rule="evenodd" d="M12.4444 14.8888C12.4444 14.5206 12.7429 14.2222 13.1111 14.2222H14.4444C14.8126 14.2222 15.1111 14.5206 15.1111 14.8888V14.8888C15.1111 15.257 14.8126 15.5555 14.4444 15.5555H13.1111C12.7429 15.5555 12.4444 15.257 12.4444 14.8888V14.8888Z" fill="white"/>
<path fill-rule="evenodd" clip-rule="evenodd" d="M11.5555 17.5556C11.5555 17.1874 11.854 16.8889 12.2222 16.8889H12.6667C13.0348 16.8889 13.3333 17.1874 13.3333 17.5556V17.5556C13.3333 17.9238 13.0348 18.2222 12.6667 18.2222H12.2222C11.854 18.2222 11.5555 17.9238 11.5555 17.5556V17.5556Z" fill="white"/>
<path d="M14.8889 18.2222H18.2234C18.7143 18.2222 19.1123 18.6202 19.1123 19.1111C19.1123 19.6021 18.7143 20 18.2234 20C18.0575 20 17.8998 19.9551 17.762 19.8712C17.4476 19.6796 17.0374 19.7791 16.8458 20.0935C16.6542 20.4079 16.7537 20.8181 17.0681 21.0097C17.4135 21.2202 17.8109 21.3334 18.2234 21.3334C19.4507 21.3334 20.4456 20.3384 20.4456 19.1111C20.4456 17.8838 19.4507 16.8889 18.2234 16.8889H14.8889C14.5207 16.8889 14.2222 17.1874 14.2222 17.5556C14.2222 17.9238 14.5207 18.2222 14.8889 18.2222Z" fill="white"/>
<path fill-rule="evenodd" clip-rule="evenodd" d="M8.22221 21.7777C8.5904 21.7777 8.88888 21.4792 8.88888 21.111C8.88888 20.7428 8.5904 20.4443 8.22221 20.4443C7.85402 20.4443 7.55554 20.7428 7.55554 21.111C7.55554 21.4792 7.85402 21.7777 8.22221 21.7777Z" fill="white"/>
<path fill-rule="evenodd" clip-rule="evenodd" d="M9.77774 16.8889C10.2687 16.8889 10.6666 16.4909 10.6666 16C10.6666 15.5091 10.2687 15.1111 9.77774 15.1111C9.28682 15.1111 8.88885 15.5091 8.88885 16C8.88885 16.4909 9.28682 16.8889 9.77774 16.8889Z" fill="white"/>
<path d="M21.1111 16.8888H22.6678C23.8951 16.8888 24.89 15.8939 24.89 14.6666C24.89 13.4393 23.8951 12.4443 22.6678 12.4443C22.2553 12.4443 21.8579 12.5575 21.5125 12.768C21.1981 12.9595 21.0986 13.3697 21.2902 13.6842C21.4818 13.9986 21.892 14.0981 22.2064 13.9065C22.3442 13.8226 22.5019 13.7777 22.6678 13.7777C23.1587 13.7777 23.5567 14.1756 23.5567 14.6666C23.5567 15.1575 23.1587 15.5554 22.6678 15.5554H21.1111C20.7429 15.5554 20.4444 15.8539 20.4444 16.2221C20.4444 16.5903 20.7429 16.8888 21.1111 16.8888Z" fill="white"/>
<path fill-rule="evenodd" clip-rule="evenodd" d="M11.3333 13.3333C11.947 13.3333 12.4445 12.8358 12.4445 12.2222C12.4445 11.6085 11.947 11.1111 11.3333 11.1111C10.7197 11.1111 10.2222 11.6085 10.2222 12.2222C10.2222 12.8358 10.7197 13.3333 11.3333 13.3333Z" fill="white"/>
<path fill-rule="evenodd" clip-rule="evenodd" d="M7.77775 13.3333C8.14594 13.3333 8.44442 13.0349 8.44442 12.6667C8.44442 12.2985 8.14594 12 7.77775 12C7.40956 12 7.11108 12.2985 7.11108 12.6667C7.11108 13.0349 7.40956 13.3333 7.77775 13.3333Z" fill="white"/>
<path fill-rule="evenodd" clip-rule="evenodd" d="M11.5555 21.3332C12.0464 21.3332 12.4444 20.9352 12.4444 20.4443C12.4444 19.9534 12.0464 19.5554 11.5555 19.5554C11.0646 19.5554 10.6666 19.9534 10.6666 20.4443C10.6666 20.9352 11.0646 21.3332 11.5555 21.3332Z" fill="white"/>
<path fill-rule="evenodd" clip-rule="evenodd" d="M7.33329 18.2222C7.70148 18.2222 7.99996 17.9238 7.99996 17.5556C7.99996 17.1874 7.70148 16.8889 7.33329 16.8889C6.9651 16.8889 6.66663 17.1874 6.66663 17.5556C6.66663 17.9238 6.9651 18.2222 7.33329 18.2222Z" fill="white"/>
</svg>
