<svg width="32" height="32" viewBox="0 0 32 32" fill="none" xmlns="http://www.w3.org/2000/svg">
<path fill-rule="evenodd" clip-rule="evenodd" d="M16 32C24.8366 32 32 24.8366 32 16C32 7.16344 24.8366 0 16 0C7.16344 0 0 7.16344 0 16C0 24.8366 7.16344 32 16 32Z" fill="#3C80E4"/>
<path fill-rule="evenodd" clip-rule="evenodd" d="M16 20.4444C18.4546 20.4444 20.4444 18.4546 20.4444 16C20.4444 13.5454 18.4546 11.5555 16 11.5555C13.5454 11.5555 11.5555 13.5454 11.5555 16C11.5555 18.4546 13.5454 20.4444 16 20.4444Z" fill="url(#paint0_linear)"/>
<path d="M20.1773 7.64734L19.1329 10.1687C18.7927 10.99 17.5609 10.4797 17.901 9.65848L18.9454 7.1371C19.2856 6.31587 20.5174 6.82611 20.1773 7.64734Z" fill="#FFB300"/>
<path d="M14.0921 22.3381L13.0477 24.8595C12.7076 25.6807 11.4757 25.1705 11.8159 24.3493L12.8603 21.8279C13.2004 21.0067 14.4323 21.5169 14.0921 22.3381Z" fill="#FFB300"/>
<path d="M24.8587 13.0503L22.3373 14.0947C21.5161 14.4348 21.0058 13.203 21.827 12.8628L24.3484 11.8185C25.1697 11.4783 25.6799 12.7101 24.8587 13.0503Z" fill="#FFB300"/>
<path d="M10.1679 19.1355L7.64649 20.1799C6.82526 20.5201 6.31502 19.2882 7.13624 18.948L9.65763 17.9037C10.4789 17.5635 10.9891 18.7953 10.1679 19.1355Z" fill="#FFB300"/>
<path d="M24.3484 20.1811L21.827 19.1367C21.0058 18.7966 21.5161 17.5647 22.3373 17.9049L24.8587 18.9493C25.6799 19.2894 25.1697 20.5213 24.3484 20.1811Z" fill="#FFB300"/>
<path d="M9.65763 14.0959L7.13624 13.0515C6.31502 12.7113 6.82526 11.4795 7.64649 11.8197L10.1679 12.8641C10.9891 13.2042 10.4789 14.4361 9.65763 14.0959Z" fill="#FFB300"/>
<path d="M13.0465 7.1371L14.0909 9.65848C14.4311 10.4797 13.1992 10.99 12.8591 10.1687L11.8147 7.64734C11.4745 6.82611 12.7063 6.31587 13.0465 7.1371Z" fill="#FFB300"/>
<path d="M19.1317 21.8279L20.176 24.3493C20.5162 25.1705 19.2844 25.6807 18.9442 24.8595L17.8998 22.3381C17.5596 21.5169 18.7915 21.0067 19.1317 21.8279Z" fill="#FFB300"/>
<path opacity="0.8" d="M7.11106 22.2232V22.2223C7.60198 22.2223 7.99995 21.8243 7.99995 21.3334C7.99995 20.8425 7.60198 20.4445 7.11106 20.4445C6.62014 20.4445 6.22217 20.0466 6.22217 19.5556C6.22217 19.0647 6.62014 18.6668 7.11106 18.6668C7.60198 18.6668 7.99995 18.2688 7.99995 17.7779C7.99995 17.287 7.60198 16.889 7.11106 16.889C6.62014 16.889 6.22217 16.491 6.22217 16.0001C6.22217 15.5092 6.62014 15.1112 7.11106 15.1112H14.2222C14.7131 15.1112 15.1111 15.5092 15.1111 16.0001C15.1111 16.491 14.7131 16.889 14.2222 16.889C13.7312 16.889 13.3333 17.287 13.3333 17.7779C13.3333 18.2688 13.7312 18.6668 14.2222 18.6668H19.5555C20.0464 18.6668 20.4444 19.0647 20.4444 19.5556C20.4444 20.0466 20.0464 20.4445 19.5555 20.4445C19.0646 20.4445 18.6666 20.8425 18.6666 21.3334C18.6666 21.8243 19.0646 22.2223 19.5555 22.2223H23.151C23.6419 22.2223 24.0399 22.6203 24.0399 23.1112C24.0399 23.6021 23.6419 24.0001 23.151 24.0001H7.15099C6.66007 24.0001 6.2621 23.6021 6.2621 23.1112C6.2621 22.6337 6.63867 22.2441 7.11106 22.2232V22.2232Z" fill="white"/>
<defs>
<linearGradient id="paint0_linear" x1="11.6175" y1="11.561" x2="11.6175" y2="20.3259" gradientUnits="userSpaceOnUse">
<stop offset="0.000617825" stop-color="#FFCE47"/>
<stop offset="1" stop-color="#FFB300"/>
</linearGradient>
</defs>
</svg>
