<svg width="32" height="32" viewBox="0 0 32 32" fill="none" xmlns="http://www.w3.org/2000/svg">
<path fill-rule="evenodd" clip-rule="evenodd" d="M16 32C24.8366 32 32 24.8366 32 16C32 7.16344 24.8366 0 16 0C7.16344 0 0 7.16344 0 16C0 24.8366 7.16344 32 16 32Z" fill="#3C80E4"/>
<path fill-rule="evenodd" clip-rule="evenodd" d="M17.2561 8.52161C19.6518 9.53237 21.3333 11.9032 21.3333 14.6667C21.3333 18.3486 18.3485 21.3333 14.6666 21.3333C11.9031 21.3333 9.53231 19.6519 8.52155 17.2562C9.31768 17.5921 10.1927 17.7778 11.1111 17.7778C14.793 17.7778 17.7777 14.793 17.7777 11.1111C17.7777 10.1927 17.592 9.31774 17.2561 8.52161V8.52161Z" fill="url(#paint0_linear)"/>
<path opacity="0.8" d="M24.0399 22.2232V22.2223C23.549 22.2223 23.151 21.8243 23.151 21.3334C23.151 20.8425 23.549 20.4445 24.0399 20.4445C24.5308 20.4445 24.9288 20.0466 24.9288 19.5556C24.9288 19.0647 24.5308 18.6668 24.0399 18.6668C23.549 18.6668 23.151 18.2688 23.151 17.7779C23.151 17.287 23.549 16.889 24.0399 16.889C24.5308 16.889 24.9288 16.491 24.9288 16.0001C24.9288 15.5092 24.5308 15.1112 24.0399 15.1112H16.9288C16.4379 15.1112 16.0399 15.5092 16.0399 16.0001C16.0399 16.491 16.4379 16.889 16.9288 16.889C17.4197 16.889 17.8177 17.287 17.8177 17.7779C17.8177 18.2688 17.4197 18.6668 16.9288 18.6668H11.5955C11.1045 18.6668 10.7066 19.0647 10.7066 19.5556C10.7066 20.0466 11.1045 20.4445 11.5955 20.4445C12.0864 20.4445 12.4843 20.8425 12.4843 21.3334C12.4843 21.8243 12.0864 22.2223 11.5955 22.2223H7.99997C7.50905 22.2223 7.11108 22.6203 7.11108 23.1112C7.11108 23.6021 7.50905 24.0001 7.99997 24.0001H24C24.4909 24.0001 24.8889 23.6021 24.8889 23.1112C24.8889 22.6337 24.5123 22.2441 24.0399 22.2232Z" fill="white"/>
<defs>
<linearGradient id="paint0_linear" x1="8.61086" y1="8.52942" x2="8.61086" y2="21.1625" gradientUnits="userSpaceOnUse">
<stop offset="0.000617825" stop-color="#FFCE47"/>
<stop offset="1" stop-color="#FFB300"/>
</linearGradient>
</defs>
</svg>
