<svg width="32" height="32" viewBox="0 0 32 32" fill="none" xmlns="http://www.w3.org/2000/svg">
<path fill-rule="evenodd" clip-rule="evenodd" d="M16 32C24.8366 32 32 24.8366 32 16C32 7.16344 24.8366 0 16 0C7.16344 0 0 7.16344 0 16C0 24.8366 7.16344 32 16 32Z" fill="#3C80E4"/>
<path opacity="0.5" fill-rule="evenodd" clip-rule="evenodd" d="M22.2222 17.7778C23.6949 17.7778 24.8888 16.5839 24.8888 15.1111C24.8888 13.6384 23.6949 12.4445 22.2222 12.4445C22.213 12.4445 22.2038 12.4445 22.1947 12.4446C22.2128 12.299 22.2222 12.1506 22.2222 12C22.2222 10.0363 20.6303 8.44446 18.6666 8.44446C17.111 8.44446 15.7887 9.4435 15.3063 10.835C14.9645 10.7257 14.6002 10.6667 14.2222 10.6667C12.2585 10.6667 10.6666 12.2586 10.6666 14.2222C10.6666 16.1859 12.2585 17.7778 14.2222 17.7778C14.5291 17.7778 14.827 17.7389 15.1111 17.6658V17.7778H22.2222Z" fill="#F5F5F5"/>
<path fill-rule="evenodd" clip-rule="evenodd" d="M10.6666 22.6667C8.70296 22.6667 7.11108 21.0748 7.11108 19.1111C7.11108 17.1475 8.70296 15.5556 10.6666 15.5556C11.037 15.5556 11.3941 15.6122 11.7299 15.7173C12.2307 14.0798 13.7541 12.8889 15.5555 12.8889C17.7647 12.8889 19.5555 14.6798 19.5555 16.8889C19.5555 17.0974 19.5396 17.3022 19.5088 17.5021C19.7999 17.393 20.1152 17.3334 20.4444 17.3334C21.9172 17.3334 23.1111 18.5273 23.1111 20C23.1111 21.4728 21.9172 22.6667 20.4444 22.6667H10.6666Z" fill="black" fill-opacity="0.02"/>
<path fill-rule="evenodd" clip-rule="evenodd" d="M10.6666 22.889C8.70296 22.889 7.11108 21.2971 7.11108 19.3334C7.11108 17.3697 8.70296 15.7779 10.6666 15.7779C11.037 15.7779 11.3941 15.8345 11.7299 15.9396C12.2307 14.3021 13.7541 13.1112 15.5555 13.1112C17.7647 13.1112 19.5555 14.9021 19.5555 17.1112C19.5555 17.3197 19.5396 17.5245 19.5088 17.7244C19.7999 17.6153 20.1152 17.5556 20.4444 17.5556C21.9172 17.5556 23.1111 18.7496 23.1111 20.2223C23.1111 21.6951 21.9172 22.889 20.4444 22.889H10.6666Z" fill="black" fill-opacity="0.02"/>
<path fill-rule="evenodd" clip-rule="evenodd" d="M10.6666 23.1111C8.70296 23.1111 7.11108 21.5193 7.11108 19.5556C7.11108 17.5919 8.70296 16 10.6666 16C11.037 16 11.3941 16.0567 11.7299 16.1617C12.2307 14.5243 13.7541 13.3334 15.5555 13.3334C17.7647 13.3334 19.5555 15.1242 19.5555 17.3334C19.5555 17.5419 19.5396 17.7467 19.5088 17.9466C19.7999 17.8375 20.1152 17.7778 20.4444 17.7778C21.9172 17.7778 23.1111 18.9717 23.1111 20.4445C23.1111 21.9172 21.9172 23.1111 20.4444 23.1111H10.6666Z" fill="black" fill-opacity="0.02"/>
<path d="M19.7777 16.4445C19.7777 14.1126 17.8874 12.2223 15.5555 12.2223C13.7603 12.2223 12.185 13.3527 11.5862 15.0017C11.288 14.9271 10.9798 14.889 10.6666 14.889C8.58022 14.889 6.88885 16.5803 6.88885 18.6667C6.88885 20.7531 8.58022 22.4445 10.6666 22.4445H20.4444C22.0399 22.4445 23.3333 21.1511 23.3333 19.5556C23.3333 17.9601 22.0399 16.6667 20.4444 16.6667C20.2139 16.6667 19.9869 16.6938 19.7671 16.7466C19.7742 16.6464 19.7777 16.5457 19.7777 16.4445Z" fill="black" fill-opacity="0.02"/>
<path fill-rule="evenodd" clip-rule="evenodd" d="M10.6666 22.2222C8.70296 22.2222 7.11108 20.6304 7.11108 18.6667C7.11108 16.703 8.70296 15.1111 10.6666 15.1111C11.037 15.1111 11.3941 15.1678 11.7299 15.2728C12.2307 13.6353 13.7541 12.4445 15.5555 12.4445C17.7647 12.4445 19.5555 14.2353 19.5555 16.4445C19.5555 16.653 19.5396 16.8577 19.5088 17.0576C19.7999 16.9486 20.1152 16.8889 20.4444 16.8889C21.9172 16.8889 23.1111 18.0828 23.1111 19.5556C23.1111 21.0283 21.9172 22.2222 20.4444 22.2222H10.6666Z" fill="white"/>
<path opacity="0.24" fill-rule="evenodd" clip-rule="evenodd" d="M10.6666 22.2223C12.6303 22.2223 14.2222 20.6304 14.2222 18.6668C14.2222 16.7031 12.6303 15.1112 10.6666 15.1112C8.70296 15.1112 7.11108 16.7031 7.11108 18.6668C7.11108 20.6304 8.70296 22.2223 10.6666 22.2223Z" fill="url(#paint0_radial)"/>
<path opacity="0.24" fill-rule="evenodd" clip-rule="evenodd" d="M20.4444 22.2222C21.9172 22.2222 23.1111 21.0283 23.1111 19.5556C23.1111 18.0828 21.9172 16.8889 20.4444 16.8889C18.9717 16.8889 17.7778 18.0828 17.7778 19.5556C17.7778 21.0283 18.9717 22.2222 20.4444 22.2222Z" fill="url(#paint1_radial)"/>
<path fill-rule="evenodd" clip-rule="evenodd" d="M15.5555 20.4445C17.7647 20.4445 19.5555 18.6536 19.5555 16.4445C19.5555 14.2353 17.7647 12.4445 15.5555 12.4445C13.3464 12.4445 11.5555 14.2353 11.5555 16.4445C11.5555 18.6536 13.3464 20.4445 15.5555 20.4445Z" fill="white"/>
<defs>
<radialGradient id="paint0_radial" cx="0" cy="0" r="1" gradientUnits="userSpaceOnUse" gradientTransform="translate(12.993 16.1251) rotate(-90) scale(3.55556)">
<stop stop-color="#777AB4"/>
<stop offset="1" stop-color="#777AB4" stop-opacity="0.01"/>
</radialGradient>
<radialGradient id="paint1_radial" cx="0" cy="0" r="1" gradientUnits="userSpaceOnUse" gradientTransform="translate(18.2135 16.5404) rotate(-90) scale(3.39138)">
<stop stop-color="#777AB4"/>
<stop offset="1" stop-color="#777AB4" stop-opacity="0.01"/>
</radialGradient>
</defs>
</svg>
