<svg width="32" height="32" viewBox="0 0 32 32" fill="none" xmlns="http://www.w3.org/2000/svg">
<path fill-rule="evenodd" clip-rule="evenodd" d="M16 32C24.8366 32 32 24.8366 32 16C32 7.16344 24.8366 0 16 0C7.16344 0 0 7.16344 0 16C0 24.8366 7.16344 32 16 32Z" fill="#3C80E4"/>
<path fill-rule="evenodd" clip-rule="evenodd" d="M16.8888 16.8889H13.3333L12.4444 21.3334H15.1111V25.7778L18.6666 19.5556L15.8313 19.5346L16.8888 16.8889Z" fill="url(#paint0_linear)"/>
<path fill-rule="evenodd" clip-rule="evenodd" d="M11.5556 18.2222C9.59188 18.2222 8 16.6304 8 14.6667C8 12.703 9.59188 11.1111 11.5556 11.1111C11.9259 11.1111 12.2831 11.1678 12.6188 11.2728C13.1196 9.63535 14.643 8.44446 16.4444 8.44446C18.6536 8.44446 20.4444 10.2353 20.4444 12.4445C20.4444 12.653 20.4285 12.8577 20.3977 13.0576C20.6889 12.9486 21.0041 12.8889 21.3333 12.8889C22.8061 12.8889 24 14.0828 24 15.5556C24 17.0283 22.8061 18.2222 21.3333 18.2222H11.5556Z" fill="black" fill-opacity="0.02"/>
<path fill-rule="evenodd" clip-rule="evenodd" d="M11.5556 18.4445C9.59188 18.4445 8 16.8526 8 14.889C8 12.9253 9.59188 11.3334 11.5556 11.3334C11.9259 11.3334 12.2831 11.39 12.6188 11.4951C13.1196 9.85764 14.643 8.66675 16.4444 8.66675C18.6536 8.66675 20.4444 10.4576 20.4444 12.6667C20.4444 12.8753 20.4285 13.08 20.3977 13.2799C20.6889 13.1708 21.0041 13.1112 21.3333 13.1112C22.8061 13.1112 24 14.3051 24 15.7779C24 17.2506 22.8061 18.4445 21.3333 18.4445H11.5556Z" fill="black" fill-opacity="0.02"/>
<path fill-rule="evenodd" clip-rule="evenodd" d="M11.5556 18.6667C9.59188 18.6667 8 17.0748 8 15.1111C8 13.1475 9.59188 11.5556 11.5556 11.5556C11.9259 11.5556 12.2831 11.6122 12.6188 11.7173C13.1196 10.0798 14.643 8.88892 16.4444 8.88892C18.6536 8.88892 20.4444 10.6798 20.4444 12.8889C20.4444 13.0974 20.4285 13.3022 20.3977 13.5021C20.6889 13.393 21.0041 13.3334 21.3333 13.3334C22.8061 13.3334 24 14.5273 24 16C24 17.4728 22.8061 18.6667 21.3333 18.6667H11.5556Z" fill="black" fill-opacity="0.02"/>
<path d="M20.6667 12.0001C20.6667 9.66818 18.7763 7.77783 16.4444 7.77783C14.6492 7.77783 13.074 8.90819 12.4752 10.5573C12.177 10.4827 11.8687 10.4445 11.5555 10.4445C9.46914 10.4445 7.77777 12.1359 7.77777 14.2223C7.77777 16.3087 9.46914 18.0001 11.5555 18.0001H21.3333C22.9288 18.0001 24.2222 16.7067 24.2222 15.1112C24.2222 13.5157 22.9288 12.2223 21.3333 12.2223C21.1028 12.2223 20.8759 12.2493 20.656 12.3022C20.6631 12.202 20.6667 12.1012 20.6667 12.0001Z" fill="black" fill-opacity="0.02"/>
<path fill-rule="evenodd" clip-rule="evenodd" d="M11.5556 17.7778C9.59188 17.7778 8 16.1859 8 14.2222C8 12.2585 9.59188 10.6667 11.5556 10.6667C11.9259 10.6667 12.2831 10.7233 12.6188 10.8284C13.1196 9.19089 14.643 8 16.4444 8C18.6536 8 20.4444 9.79086 20.4444 12C20.4444 12.2085 20.4285 12.4133 20.3977 12.6132C20.6889 12.5041 21.0041 12.4444 21.3333 12.4444C22.8061 12.4444 24 13.6384 24 15.1111C24 16.5839 22.8061 17.7778 21.3333 17.7778H11.5556Z" fill="white"/>
<path opacity="0.24" fill-rule="evenodd" clip-rule="evenodd" d="M11.5556 17.7779C13.5192 17.7779 15.1111 16.186 15.1111 14.2223C15.1111 12.2586 13.5192 10.6667 11.5556 10.6667C9.59188 10.6667 8 12.2586 8 14.2223C8 16.186 9.59188 17.7779 11.5556 17.7779Z" fill="url(#paint1_radial)"/>
<path opacity="0.24" fill-rule="evenodd" clip-rule="evenodd" d="M21.3333 17.7778C22.8061 17.7778 24 16.5839 24 15.1111C24 13.6384 22.8061 12.4445 21.3333 12.4445C19.8605 12.4445 18.6666 13.6384 18.6666 15.1111C18.6666 16.5839 19.8605 17.7778 21.3333 17.7778Z" fill="url(#paint2_radial)"/>
<path fill-rule="evenodd" clip-rule="evenodd" d="M16.4444 16C18.6535 16 20.4444 14.2091 20.4444 12C20.4444 9.79086 18.6535 8 16.4444 8C14.2353 8 12.4444 9.79086 12.4444 12C12.4444 14.2091 14.2353 16 16.4444 16Z" fill="white"/>
<path d="M9.87421 19.9672L8.94088 22.189C8.79828 22.5284 8.95786 22.9192 9.29731 23.0618C9.63676 23.2044 10.0275 23.0448 10.1701 22.7054L11.1035 20.4836C11.2461 20.1442 11.0865 19.7534 10.747 19.6108C10.4076 19.4682 10.0168 19.6278 9.87421 19.9672Z" fill="#B2DEF7"/>
<path d="M20.5409 19.0784L19.6076 21.3002C19.465 21.6396 19.6245 22.0304 19.964 22.173C20.3034 22.3156 20.6942 22.156 20.8368 21.8166L21.7702 19.5948C21.9128 19.2554 21.7532 18.8646 21.4137 18.722C21.0743 18.5794 20.6835 18.739 20.5409 19.0784Z" fill="#B2DEF7"/>
<defs>
<linearGradient id="paint0_linear" x1="18.6195" y1="25.6539" x2="18.6195" y2="16.8997" gradientUnits="userSpaceOnUse">
<stop offset="0.000617825" stop-color="#FFCE47"/>
<stop offset="1" stop-color="#FFB300"/>
</linearGradient>
<radialGradient id="paint1_radial" cx="0" cy="0" r="1" gradientUnits="userSpaceOnUse" gradientTransform="translate(13.8819 11.6806) rotate(-90) scale(3.55555)">
<stop stop-color="#777AB4"/>
<stop offset="1" stop-color="#777AB4" stop-opacity="0.01"/>
</radialGradient>
<radialGradient id="paint2_radial" cx="0" cy="0" r="1" gradientUnits="userSpaceOnUse" gradientTransform="translate(19.1024 12.0959) rotate(-90) scale(3.39138)">
<stop stop-color="#777AB4"/>
<stop offset="1" stop-color="#777AB4" stop-opacity="0.01"/>
</radialGradient>
</defs>
</svg>
