<svg width="32" height="32" viewBox="0 0 32 32" fill="none" xmlns="http://www.w3.org/2000/svg">
<path fill-rule="evenodd" clip-rule="evenodd" d="M16 32C24.8366 32 32 24.8366 32 16C32 7.16344 24.8366 0 16 0C7.16344 0 0 7.16344 0 16C0 24.8366 7.16344 32 16 32Z" fill="#3C80E4"/>
<path d="M15 20.1156V23.4401C15 23.7469 15.2487 23.9956 15.5556 23.9956C15.8624 23.9956 16.1111 23.7469 16.1111 23.4401V20.1156C16.1111 19.8088 15.8624 19.5601 15.5556 19.5601C15.2487 19.5601 15 19.8088 15 20.1156Z" fill="white"/>
<path d="M14.3938 20.4656L17.2729 22.1278C17.9144 22.4981 17.3588 23.4604 16.7173 23.09L13.8383 21.4278C13.1968 21.0574 13.7523 20.0952 14.3938 20.4656Z" fill="white"/>
<path d="M17.2729 21.4278L14.3938 23.09C13.7523 23.4604 13.1968 22.4981 13.8383 22.1278L16.7173 20.4656C17.3588 20.0952 17.9144 21.0574 17.2729 21.4278Z" fill="white"/>
<path fill-rule="evenodd" clip-rule="evenodd" d="M11.5556 19.1112C9.59188 19.1112 8 17.5193 8 15.5556C8 13.5919 9.59188 12 11.5556 12C11.9259 12 12.2831 12.0567 12.6188 12.1617C13.1196 10.5243 14.643 9.33337 16.4444 9.33337C18.6536 9.33337 20.4444 11.1242 20.4444 13.3334C20.4444 13.5419 20.4285 13.7467 20.3977 13.9466C20.6889 13.8375 21.0041 13.7778 21.3333 13.7778C22.8061 13.7778 24 14.9717 24 16.4445C24 17.9172 22.8061 19.1112 21.3333 19.1112H11.5556Z" fill="black" fill-opacity="0.02"/>
<path fill-rule="evenodd" clip-rule="evenodd" d="M11.5556 19.3333C9.59188 19.3333 8 17.7414 8 15.7778C8 13.8141 9.59188 12.2222 11.5556 12.2222C11.9259 12.2222 12.2831 12.2788 12.6188 12.3839C13.1196 10.7464 14.643 9.55554 16.4444 9.55554C18.6536 9.55554 20.4444 11.3464 20.4444 13.5555C20.4444 13.764 20.4285 13.9688 20.3977 14.1687C20.6889 14.0596 21.0041 14 21.3333 14C22.8061 14 24 15.1939 24 16.6667C24 18.1394 22.8061 19.3333 21.3333 19.3333H11.5556Z" fill="black" fill-opacity="0.02"/>
<path fill-rule="evenodd" clip-rule="evenodd" d="M11.5556 19.5556C9.59188 19.5556 8 17.9637 8 16.0001C8 14.0364 9.59188 12.4445 11.5556 12.4445C11.9259 12.4445 12.2831 12.5011 12.6188 12.6062C13.1196 10.9687 14.643 9.77783 16.4444 9.77783C18.6536 9.77783 20.4444 11.5687 20.4444 13.7778C20.4444 13.9863 20.4285 14.1911 20.3977 14.391C20.6889 14.2819 21.0041 14.2223 21.3333 14.2223C22.8061 14.2223 24 15.4162 24 16.8889C24 18.3617 22.8061 19.5556 21.3333 19.5556H11.5556Z" fill="black" fill-opacity="0.02"/>
<path d="M20.6667 12.889C20.6667 10.5571 18.7763 8.66675 16.4444 8.66675C14.6492 8.66675 13.074 9.79711 12.4752 11.4462C12.177 11.3716 11.8687 11.3334 11.5555 11.3334C9.46914 11.3334 7.77777 13.0248 7.77777 15.1112C7.77777 17.1976 9.46914 18.889 11.5555 18.889H21.3333C22.9288 18.889 24.2222 17.5956 24.2222 16.0001C24.2222 14.4046 22.9288 13.1112 21.3333 13.1112C21.1028 13.1112 20.8759 13.1382 20.656 13.1911C20.6631 13.0909 20.6667 12.9901 20.6667 12.889Z" fill="black" fill-opacity="0.02"/>
<path fill-rule="evenodd" clip-rule="evenodd" d="M11.5556 18.6667C9.59188 18.6667 8 17.0748 8 15.1111C8 13.1475 9.59188 11.5556 11.5556 11.5556C11.9259 11.5556 12.2831 11.6122 12.6188 11.7173C13.1196 10.0798 14.643 8.88892 16.4444 8.88892C18.6536 8.88892 20.4444 10.6798 20.4444 12.8889C20.4444 13.0974 20.4285 13.3022 20.3977 13.5021C20.6889 13.393 21.0041 13.3334 21.3333 13.3334C22.8061 13.3334 24 14.5273 24 16C24 17.4728 22.8061 18.6667 21.3333 18.6667H11.5556Z" fill="white"/>
<path opacity="0.24" fill-rule="evenodd" clip-rule="evenodd" d="M11.5556 18.6667C13.5192 18.6667 15.1111 17.0748 15.1111 15.1111C15.1111 13.1474 13.5192 11.5555 11.5556 11.5555C9.59188 11.5555 8 13.1474 8 15.1111C8 17.0748 9.59188 18.6667 11.5556 18.6667Z" fill="url(#paint0_radial)"/>
<path opacity="0.24" fill-rule="evenodd" clip-rule="evenodd" d="M21.3333 18.6667C22.8061 18.6667 24 17.4728 24 16C24 14.5273 22.8061 13.3334 21.3333 13.3334C19.8605 13.3334 18.6666 14.5273 18.6666 16C18.6666 17.4728 19.8605 18.6667 21.3333 18.6667Z" fill="url(#paint1_radial)"/>
<path fill-rule="evenodd" clip-rule="evenodd" d="M16.4444 16.8889C18.6535 16.8889 20.4444 15.0981 20.4444 12.8889C20.4444 10.6798 18.6535 8.88892 16.4444 8.88892C14.2353 8.88892 12.4444 10.6798 12.4444 12.8889C12.4444 15.0981 14.2353 16.8889 16.4444 16.8889Z" fill="white"/>
<defs>
<radialGradient id="paint0_radial" cx="0" cy="0" r="1" gradientUnits="userSpaceOnUse" gradientTransform="translate(13.8819 12.5694) rotate(-90) scale(3.55556)">
<stop stop-color="#777AB4"/>
<stop offset="1" stop-color="#777AB4" stop-opacity="0.01"/>
</radialGradient>
<radialGradient id="paint1_radial" cx="0" cy="0" r="1" gradientUnits="userSpaceOnUse" gradientTransform="translate(19.1024 12.9848) rotate(-90) scale(3.39138)">
<stop stop-color="#777AB4"/>
<stop offset="1" stop-color="#777AB4" stop-opacity="0.01"/>
</radialGradient>
</defs>
</svg>
