<svg width="32" height="32" viewBox="0 0 32 32" fill="none" xmlns="http://www.w3.org/2000/svg">
<path fill-rule="evenodd" clip-rule="evenodd" d="M16 32C24.8366 32 32 24.8366 32 16C32 7.16344 24.8366 0 16 0C7.16344 0 0 7.16344 0 16C0 24.8366 7.16344 32 16 32Z" fill="#3C80E4"/>
<path fill-rule="evenodd" clip-rule="evenodd" d="M11.5556 18.2221C9.59188 18.2221 8 16.6302 8 14.6666C8 12.7029 9.59188 11.111 11.5556 11.111C11.9259 11.111 12.2831 11.1676 12.6188 11.2727C13.1196 9.63523 14.643 8.44434 16.4444 8.44434C18.6536 8.44434 20.4444 10.2352 20.4444 12.4443C20.4444 12.6528 20.4285 12.8576 20.3977 13.0575C20.6889 12.9484 21.0041 12.8888 21.3333 12.8888C22.8061 12.8888 24 14.0827 24 15.5554C24 17.0282 22.8061 18.2221 21.3333 18.2221H11.5556Z" fill="black" fill-opacity="0.02"/>
<path fill-rule="evenodd" clip-rule="evenodd" d="M11.5556 18.4443C9.59188 18.4443 8 16.8524 8 14.8887C8 12.925 9.59188 11.3332 11.5556 11.3332C11.9259 11.3332 12.2831 11.3898 12.6188 11.4949C13.1196 9.85739 14.643 8.6665 16.4444 8.6665C18.6536 8.6665 20.4444 10.4574 20.4444 12.6665C20.4444 12.875 20.4285 13.0798 20.3977 13.2797C20.6889 13.1706 21.0041 13.1109 21.3333 13.1109C22.8061 13.1109 24 14.3049 24 15.7776C24 17.2504 22.8061 18.4443 21.3333 18.4443H11.5556Z" fill="black" fill-opacity="0.02"/>
<path fill-rule="evenodd" clip-rule="evenodd" d="M11.5556 18.6667C9.59188 18.6667 8 17.0748 8 15.1111C8 13.1475 9.59188 11.5556 11.5556 11.5556C11.9259 11.5556 12.2831 11.6122 12.6188 11.7173C13.1196 10.0798 14.643 8.88892 16.4444 8.88892C18.6536 8.88892 20.4444 10.6798 20.4444 12.8889C20.4444 13.0974 20.4285 13.3022 20.3977 13.5021C20.6889 13.393 21.0041 13.3334 21.3333 13.3334C22.8061 13.3334 24 14.5273 24 16C24 17.4728 22.8061 18.6667 21.3333 18.6667H11.5556Z" fill="black" fill-opacity="0.02"/>
<path d="M20.6667 11.9998C20.6667 9.66794 18.7763 7.77759 16.4444 7.77759C14.6492 7.77759 13.074 8.90795 12.4752 10.557C12.177 10.4824 11.8687 10.4443 11.5555 10.4443C9.46914 10.4443 7.77777 12.1356 7.77777 14.222C7.77777 16.3084 9.46914 17.9998 11.5555 17.9998H21.3333C22.9288 17.9998 24.2222 16.7064 24.2222 15.1109C24.2222 13.5154 22.9288 12.222 21.3333 12.222C21.1028 12.222 20.8759 12.2491 20.656 12.3019C20.6631 12.2017 20.6667 12.101 20.6667 11.9998Z" fill="black" fill-opacity="0.02"/>
<path fill-rule="evenodd" clip-rule="evenodd" d="M11.5556 17.7778C9.59188 17.7778 8 16.1859 8 14.2222C8 12.2585 9.59188 10.6667 11.5556 10.6667C11.9259 10.6667 12.2831 10.7233 12.6188 10.8284C13.1196 9.19089 14.643 8 16.4444 8C18.6536 8 20.4444 9.79086 20.4444 12C20.4444 12.2085 20.4285 12.4133 20.3977 12.6132C20.6889 12.5041 21.0041 12.4444 21.3333 12.4444C22.8061 12.4444 24 13.6384 24 15.1111C24 16.5839 22.8061 17.7778 21.3333 17.7778H11.5556Z" fill="white"/>
<path opacity="0.24" fill-rule="evenodd" clip-rule="evenodd" d="M11.5556 17.7776C13.5192 17.7776 15.1111 16.1857 15.1111 14.2221C15.1111 12.2584 13.5192 10.6665 11.5556 10.6665C9.59188 10.6665 8 12.2584 8 14.2221C8 16.1857 9.59188 17.7776 11.5556 17.7776Z" fill="url(#paint0_radial)"/>
<path opacity="0.24" fill-rule="evenodd" clip-rule="evenodd" d="M21.3333 17.7777C22.8061 17.7777 24 16.5838 24 15.111C24 13.6382 22.8061 12.4443 21.3333 12.4443C19.8605 12.4443 18.6666 13.6382 18.6666 15.111C18.6666 16.5838 19.8605 17.7777 21.3333 17.7777Z" fill="url(#paint1_radial)"/>
<path fill-rule="evenodd" clip-rule="evenodd" d="M16.4444 16C18.6535 16 20.4444 14.2091 20.4444 12C20.4444 9.79086 18.6535 8 16.4444 8C14.2353 8 12.4444 9.79086 12.4444 12C12.4444 14.2091 14.2353 16 16.4444 16Z" fill="white"/>
<path fill-rule="evenodd" clip-rule="evenodd" d="M10.5365 18.9808L12.1302 20.5744C12.3037 20.748 12.3037 21.0294 12.1302 21.203L10.5365 22.7967C10.3629 22.9702 10.0815 22.9702 9.90794 22.7967L8.31426 21.203C8.14069 21.0294 8.14069 20.748 8.31426 20.5744L9.90794 18.9808C10.0815 18.8072 10.3629 18.8072 10.5365 18.9808Z" fill="#BAF7FF"/>
<path fill-rule="evenodd" clip-rule="evenodd" d="M21.2032 18.9808L22.7968 20.5744C22.9704 20.748 22.9704 21.0294 22.7968 21.203L21.2032 22.7967C21.0296 22.9702 20.7482 22.9702 20.5746 22.7967L18.9809 21.203C18.8074 21.0294 18.8074 20.748 18.9809 20.5744L20.5746 18.9808C20.7482 18.8072 21.0296 18.8072 21.2032 18.9808Z" fill="#BAF7FF"/>
<path fill-rule="evenodd" clip-rule="evenodd" d="M15.8698 21.6475L17.4635 23.2412C17.637 23.4148 17.637 23.6962 17.4635 23.8697L15.8698 25.4634C15.6962 25.637 15.4148 25.637 15.2413 25.4634L13.6476 23.8697C13.474 23.6962 13.474 23.4148 13.6476 23.2412L15.2413 21.6475C15.4148 21.4739 15.6962 21.4739 15.8698 21.6475Z" fill="#BAF7FF"/>
<defs>
<radialGradient id="paint0_radial" cx="0" cy="0" r="1" gradientUnits="userSpaceOnUse" gradientTransform="translate(13.8819 11.6804) rotate(-90) scale(3.55555)">
<stop stop-color="#777AB4"/>
<stop offset="1" stop-color="#777AB4" stop-opacity="0.01"/>
</radialGradient>
<radialGradient id="paint1_radial" cx="0" cy="0" r="1" gradientUnits="userSpaceOnUse" gradientTransform="translate(19.1024 12.0958) rotate(-90) scale(3.39138)">
<stop stop-color="#777AB4"/>
<stop offset="1" stop-color="#777AB4" stop-opacity="0.01"/>
</radialGradient>
</defs>
</svg>
