<svg width="32" height="32" viewBox="0 0 32 32" fill="none" xmlns="http://www.w3.org/2000/svg">
<path fill-rule="evenodd" clip-rule="evenodd" d="M16 32C24.8366 32 32 24.8366 32 16C32 7.16344 24.8366 0 16 0C7.16344 0 0 7.16344 0 16C0 24.8366 7.16344 32 16 32Z" fill="#3C80E4"/>
<path fill-rule="evenodd" clip-rule="evenodd" d="M16 20.4444C18.4546 20.4444 20.4444 18.4546 20.4444 16C20.4444 13.5454 18.4546 11.5555 16 11.5555C13.5454 11.5555 11.5555 13.5454 11.5555 16C11.5555 18.4546 13.5454 20.4444 16 20.4444Z" fill="url(#paint0_linear)"/>
<path d="M20.1773 7.64734L19.1329 10.1687C18.7927 10.99 17.5609 10.4797 17.901 9.65848L18.9454 7.1371C19.2856 6.31587 20.5174 6.82611 20.1773 7.64734Z" fill="#FFB300"/>
<path d="M14.0921 22.3381L13.0477 24.8595C12.7076 25.6807 11.4757 25.1705 11.8159 24.3493L12.8603 21.8279C13.2004 21.0067 14.4323 21.5169 14.0921 22.3381Z" fill="#FFB300"/>
<path d="M24.8587 13.0503L22.3373 14.0947C21.5161 14.4348 21.0058 13.203 21.827 12.8628L24.3484 11.8185C25.1696 11.4783 25.6799 12.7101 24.8587 13.0503Z" fill="#FFB300"/>
<path d="M10.1679 19.1355L7.64649 20.1799C6.82526 20.5201 6.31502 19.2882 7.13624 18.948L9.65763 17.9037C10.4789 17.5635 10.9891 18.7953 10.1679 19.1355Z" fill="#FFB300"/>
<path d="M24.3484 20.1811L21.827 19.1367C21.0058 18.7966 21.5161 17.5647 22.3373 17.9049L24.8587 18.9493C25.6799 19.2894 25.1696 20.5213 24.3484 20.1811Z" fill="#FFB300"/>
<path d="M9.65763 14.0959L7.13624 13.0515C6.31502 12.7113 6.82526 11.4795 7.64649 11.8197L10.1679 12.8641C10.9891 13.2042 10.4789 14.4361 9.65763 14.0959Z" fill="#FFB300"/>
<path d="M13.0465 7.1371L14.0909 9.65848C14.4311 10.4797 13.1992 10.99 12.8591 10.1687L11.8147 7.64734C11.4745 6.82611 12.7063 6.31587 13.0465 7.1371Z" fill="#FFB300"/>
<path d="M19.1317 21.8279L20.176 24.3493C20.5162 25.1705 19.2844 25.6807 18.9442 24.8595L17.8998 22.3381C17.5596 21.5169 18.7915 21.0067 19.1317 21.8279Z" fill="#FFB300"/>
<defs>
<linearGradient id="paint0_linear" x1="11.6175" y1="11.561" x2="11.6175" y2="20.3259" gradientUnits="userSpaceOnUse">
<stop offset="0.000617825" stop-color="#FFCE47"/>
<stop offset="1" stop-color="#FFB300"/>
</linearGradient>
</defs>
</svg>
