<svg width="32" height="32" viewBox="0 0 32 32" fill="none" xmlns="http://www.w3.org/2000/svg">
<path fill-rule="evenodd" clip-rule="evenodd" d="M16 32C24.8366 32 32 24.8366 32 16C32 7.16344 24.8366 0 16 0C7.16344 0 0 7.16344 0 16C0 24.8366 7.16344 32 16 32Z" fill="#3C80E4"/>
<path fill-rule="evenodd" clip-rule="evenodd" d="M15.5555 17.7776H11.1111C10.3747 17.7776 9.77775 17.1806 9.77775 16.4443C9.77775 15.7079 10.3747 15.1109 11.1111 15.1109H12C12.7364 15.1109 13.3333 14.514 13.3333 13.7776C13.3333 13.0412 12.7364 12.4443 12 12.4443H8.44442C7.70804 12.4443 7.11108 11.8473 7.11108 11.1109C7.11108 10.3745 7.70804 9.77759 8.44442 9.77759H18.2222C18.9586 9.77759 19.5555 10.3745 19.5555 11.1109C19.5555 11.8473 18.9586 12.4443 18.2222 12.4443C17.4858 12.4443 16.8889 13.0412 16.8889 13.7776C16.8889 14.514 17.4858 15.1109 18.2222 15.1109H22.6666C23.403 15.1109 24 15.7079 24 16.4443C24 17.1806 23.403 17.7776 22.6666 17.7776H21.7777C21.0414 17.7776 20.4444 18.3745 20.4444 19.1109C20.4444 19.8473 21.0414 20.4443 21.7777 20.4443C22.5141 20.4443 23.1111 21.0412 23.1111 21.7776C23.1111 22.514 22.5141 23.1109 21.7777 23.1109H14.6666C13.9303 23.1109 13.3333 22.514 13.3333 21.7776C13.3333 21.0412 13.9303 20.4443 14.6666 20.4443H15.5555C16.2919 20.4443 16.8889 19.8473 16.8889 19.1109C16.8889 18.3745 16.2919 17.7776 15.5555 17.7776Z" fill="white"/>
<path fill-rule="evenodd" clip-rule="evenodd" d="M8 21.7777C8 21.0413 8.59695 20.4443 9.33333 20.4443H10.2222C10.9586 20.4443 11.5556 21.0413 11.5556 21.7777V21.7777C11.5556 22.514 10.9586 23.111 10.2222 23.111H9.33333C8.59695 23.111 8 22.514 8 21.7777V21.7777Z" fill="white"/>
<path fill-rule="evenodd" clip-rule="evenodd" d="M21.3333 11.1109C21.3333 10.3745 21.9303 9.77759 22.6666 9.77759H23.5555C24.2919 9.77759 24.8889 10.3745 24.8889 11.1109V11.1109C24.8889 11.8473 24.2919 12.4443 23.5555 12.4443H22.6666C21.9303 12.4443 21.3333 11.8473 21.3333 11.1109V11.1109Z" fill="white"/>
</svg>
