<svg width="32" height="32" viewBox="0 0 32 32" fill="none" xmlns="http://www.w3.org/2000/svg">
<path fill-rule="evenodd" clip-rule="evenodd" d="M16 32C24.8366 32 32 24.8366 32 16C32 7.16344 24.8366 0 16 0C7.16344 0 0 7.16344 0 16C0 24.8366 7.16344 32 16 32Z" fill="#3C80E4"/>
<path fill-rule="evenodd" clip-rule="evenodd" d="M8.44446 11.1746C8.44446 8.95378 11.6219 8 16.0635 8C20.5052 8 23.6826 8.95378 23.6826 11.1746C23.6826 13.1217 22.7617 14.9335 21.1093 16.0088C20.8629 16.1691 20.3146 16.4888 20.1767 17.1936C20.0954 17.6098 20.2406 18.2068 20.5315 18.7701C21.0178 19.712 21.0365 20.8119 20.3219 21.5867C19.0206 22.9979 21.1429 24.9312 21.1429 24.9312C21.1429 24.9312 18.3348 25.1754 16.4089 24.0964C14.5774 23.0704 14.3704 20.6984 14.3704 20.6984C12.3937 19.3205 11.4008 17.6627 11.8254 16.4386C9.6786 15.4937 8.44446 13.4252 8.44446 11.1746Z" fill="white"/>
<path fill-rule="evenodd" clip-rule="evenodd" d="M20.337 18.3317C20.3912 18.4777 20.4565 18.625 20.5314 18.7702C21.0178 19.712 21.0364 20.812 20.3219 21.5868C19.4543 22.5275 19.728 23.6424 21.1428 24.9313C19.2708 25.094 17.6928 24.8158 16.4088 24.0965C15.1878 23.4124 14.5083 22.2798 14.3703 20.6985C13.815 20.3113 13.3373 19.9021 12.9468 19.4866C14.1256 18.154 16.9198 17.5989 19.9455 18.242C20.0773 18.27 20.2079 18.3 20.337 18.3317V18.3317Z" fill="url(#paint0_radial)"/>
<path fill-rule="evenodd" clip-rule="evenodd" d="M21.8579 15.427C21.6283 15.6387 21.3785 15.8335 21.1092 16.0087C20.8629 16.169 20.3145 16.4888 20.1767 17.1936C20.0953 17.6098 20.2405 18.2067 20.5314 18.7701C21.0178 19.7119 21.0365 20.8119 20.3219 21.5867C20.2965 21.6142 20.272 21.642 20.2486 21.6698C19.1637 21.7903 17.9363 21.7312 16.6683 21.4617C15.8441 21.2865 15.0718 21.0371 14.3734 20.7326C14.3724 20.7212 14.3714 20.7098 14.3704 20.6983C12.3937 19.3205 11.4008 17.6626 11.8254 16.4386C11.4734 16.2836 11.1459 16.0985 10.8444 15.8873C11.6197 14.1092 14.784 13.2719 18.2524 14.0091C19.6349 14.303 20.8715 14.8057 21.8579 15.427Z" fill="url(#paint1_radial)"/>
<path fill-rule="evenodd" clip-rule="evenodd" d="M21.2778 8.66052C22.2705 9.25341 23.0805 9.9738 23.6436 10.7615C23.6694 10.894 23.6826 11.0317 23.6826 11.1746C23.6826 13.1217 22.7617 14.9335 21.1093 16.0088C20.8629 16.1691 20.3146 16.4888 20.1767 17.1936C20.1511 17.3247 20.148 17.4737 20.1647 17.6339C18.7797 17.975 17.1715 18.0332 15.5032 17.7391C14.1323 17.4974 12.8809 17.0459 11.8209 16.4519C11.8224 16.4475 11.8239 16.4431 11.8254 16.4386C11.7789 16.4181 11.7327 16.3971 11.687 16.3756C10.8825 15.9085 10.1935 15.3584 9.65277 14.7562C8.86884 13.7515 8.44446 12.4944 8.44446 11.1746C8.44446 8.95378 11.6219 8 16.0635 8C18.1448 8 19.9485 8.20943 21.2778 8.66052V8.66052Z" fill="url(#paint2_radial)"/>
<path fill-rule="evenodd" clip-rule="evenodd" d="M16.0635 11.3861C19.3363 11.3861 21.9894 10.8176 21.9894 10.1163C21.9894 9.41496 19.3363 8.84644 16.0635 8.84644C12.7907 8.84644 10.1376 9.41496 10.1376 10.1163C10.1376 10.8176 12.7907 11.3861 16.0635 11.3861Z" fill="#BABFD2"/>
<defs>
<radialGradient id="paint0_radial" cx="0" cy="0" r="1" gradientUnits="userSpaceOnUse" gradientTransform="translate(20.3244 21.4753) rotate(90) scale(4.70385 6.78553)">
<stop stop-color="white"/>
<stop offset="0.635003" stop-color="white"/>
<stop offset="1" stop-color="#90B2E6"/>
</radialGradient>
<radialGradient id="paint1_radial" cx="0" cy="0" r="1" gradientUnits="userSpaceOnUse" gradientTransform="translate(20.7581 17.7354) rotate(90) scale(5.36617 12.0233)">
<stop stop-color="white"/>
<stop offset="0.635003" stop-color="white"/>
<stop offset="1" stop-color="#90B2E6"/>
</radialGradient>
<radialGradient id="paint2_radial" cx="0" cy="0" r="1" gradientUnits="userSpaceOnUse" gradientTransform="translate(18.4897 10.9752) rotate(95.368) scale(8.66745 15.4466)">
<stop stop-color="white"/>
<stop offset="0.620715" stop-color="white"/>
<stop offset="1" stop-color="#90B2E6"/>
</radialGradient>
</defs>
</svg>
