<svg width="32" height="32" viewBox="0 0 32 32" fill="none" xmlns="http://www.w3.org/2000/svg">
<path fill-rule="evenodd" clip-rule="evenodd" d="M16 32C24.8366 32 32 24.8366 32 16C32 7.16344 24.8366 0 16 0C7.16344 0 0 7.16344 0 16C0 24.8366 7.16344 32 16 32Z" fill="#3C80E4"/>
<path fill-rule="evenodd" clip-rule="evenodd" d="M19.4797 17.7777H13.4092C13.3601 17.6387 13.3333 17.4891 13.3333 17.3333C13.3333 16.5969 13.9303 16 14.6667 16C15.1576 16 15.5555 15.602 15.5555 15.1111C15.5555 14.6202 15.1576 14.2222 14.6667 14.2222H12.8889C12.1525 14.2222 11.5555 13.6252 11.5555 12.8889C11.5555 12.1525 12.1525 11.5555 12.8889 11.5555H13.3333C13.8242 11.5555 14.2222 11.1576 14.2222 10.6666C14.2222 10.1757 13.8242 9.77775 13.3333 9.77775H11.1111C10.3747 9.77775 9.77777 9.1808 9.77777 8.44442C9.77777 7.70804 10.3747 7.11108 11.1111 7.11108H22.6667C23.403 7.11108 24 7.70804 24 8.44442C24 9.1808 23.403 9.77775 22.6667 9.77775H17.7778C17.2869 9.77775 16.8889 10.1757 16.8889 10.6666C16.8889 11.1576 17.2869 11.5555 17.7778 11.5555H20C20.7364 11.5555 21.3333 12.1525 21.3333 12.8889C21.3333 13.6252 20.7364 14.2222 20 14.2222H18.2222C17.7313 14.2222 17.3333 14.6202 17.3333 15.1111C17.3333 15.602 17.7313 16 18.2222 16C18.9586 16 19.5555 16.5969 19.5555 17.3333C19.5555 17.4891 19.5288 17.6387 19.4797 17.7777V17.7777Z" fill="white"/>
<path fill-rule="evenodd" clip-rule="evenodd" d="M20.8855 19.4384L23.62 24.2238C23.7418 24.4369 23.6677 24.7084 23.4546 24.8302C23.3875 24.8685 23.3115 24.8887 23.2341 24.8887H9.65471C9.40925 24.8887 9.21027 24.6897 9.21027 24.4443C9.21027 24.3669 9.23045 24.2909 9.26882 24.2238L12.0033 19.4384C12.1333 19.5128 12.2839 19.5554 12.4444 19.5554H14.2222V20.4443C14.2222 20.9352 14.6202 21.3332 15.1111 21.3332C15.602 21.3332 16 20.9352 16 20.4443V19.5554C16 19.0645 16.3979 18.6665 16.8889 18.6665C17.3798 18.6665 17.7777 19.0645 17.7777 19.5554C17.7777 20.0463 18.1757 20.4443 18.6666 20.4443C19.1576 20.4443 19.5555 20.0463 19.5555 19.5554H20.4444C20.6049 19.5554 20.7555 19.5128 20.8855 19.4384V19.4384Z" fill="white"/>
<path fill-rule="evenodd" clip-rule="evenodd" d="M7.99997 19.5554C8.49089 19.5554 8.88886 19.1574 8.88886 18.6665C8.88886 18.1756 8.49089 17.7776 7.99997 17.7776C7.50905 17.7776 7.11108 18.1756 7.11108 18.6665C7.11108 19.1574 7.50905 19.5554 7.99997 19.5554Z" fill="white"/>
<path fill-rule="evenodd" clip-rule="evenodd" d="M7.11112 14.2221C7.60204 14.2221 8.00001 13.8241 8.00001 13.3332C8.00001 12.8423 7.60204 12.4443 7.11112 12.4443C6.6202 12.4443 6.22223 12.8423 6.22223 13.3332C6.22223 13.8241 6.6202 14.2221 7.11112 14.2221Z" fill="white"/>
<path fill-rule="evenodd" clip-rule="evenodd" d="M9.77774 16.8889C10.2687 16.8889 10.6666 16.4909 10.6666 16C10.6666 15.5091 10.2687 15.1111 9.77774 15.1111C9.28682 15.1111 8.88885 15.5091 8.88885 16C8.88885 16.4909 9.28682 16.8889 9.77774 16.8889Z" fill="white"/>
<path fill-rule="evenodd" clip-rule="evenodd" d="M24 19.5554C24.4909 19.5554 24.8889 19.1574 24.8889 18.6665C24.8889 18.1756 24.4909 17.7776 24 17.7776C23.5091 17.7776 23.1111 18.1756 23.1111 18.6665C23.1111 19.1574 23.5091 19.5554 24 19.5554Z" fill="white"/>
<path fill-rule="evenodd" clip-rule="evenodd" d="M24.8889 14.2221C25.3798 14.2221 25.7778 13.8241 25.7778 13.3332C25.7778 12.8423 25.3798 12.4443 24.8889 12.4443C24.398 12.4443 24 12.8423 24 13.3332C24 13.8241 24.398 14.2221 24.8889 14.2221Z" fill="white"/>
<path fill-rule="evenodd" clip-rule="evenodd" d="M22.2222 16.8889C22.7131 16.8889 23.1111 16.4909 23.1111 16C23.1111 15.5091 22.7131 15.1111 22.2222 15.1111C21.7313 15.1111 21.3333 15.5091 21.3333 16C21.3333 16.4909 21.7313 16.8889 22.2222 16.8889Z" fill="white"/>
</svg>
